<?xml version="1.0" encoding="UTF-8" standalone="no"?>
<!-- Created with Inkscape (http://www.inkscape.org/) -->

<svg
   xmlns:dc="http://purl.org/dc/elements/1.1/"
   xmlns:cc="http://creativecommons.org/ns#"
   xmlns:rdf="http://www.w3.org/1999/02/22-rdf-syntax-ns#"
   xmlns:svg="http://www.w3.org/2000/svg"
   xmlns="http://www.w3.org/2000/svg"
   xmlns:sodipodi="http://sodipodi.sourceforge.net/DTD/sodipodi-0.dtd"
   xmlns:inkscape="http://www.inkscape.org/namespaces/inkscape"
   width="1024"
   height="1024"
   viewBox="0 0 270.93333 270.93334"
   version="1.1"
   id="svg8"
   inkscape:version="0.92.3 (2405546, 2018-03-11)"
   sodipodi:docname="incise_icon2.svg">
  <defs
     id="defs2">
    <inkscape:perspective
       sodipodi:type="inkscape:persp3d"
       inkscape:vp_x="-27.416009 : 143.4805 : 1"
       inkscape:vp_y="0 : 1378.5789 : 0"
       inkscape:vp_z="281.42336 : 143.4805 : 1"
       inkscape:persp3d-origin="127.00367 : 75.240851 : 1"
       id="perspective3717" />
    <inkscape:perspective
       sodipodi:type="inkscape:persp3d"
       inkscape:vp_x="-50.85554 : 142.08306 : 1"
       inkscape:vp_y="0 : 1316.9147 : 0"
       inkscape:vp_z="290.21839 : 142.08306 : 1"
       inkscape:persp3d-origin="119.68144 : 76.895809 : 1"
       id="perspective3717-9" />
  </defs>
  <sodipodi:namedview
     id="base"
     pagecolor="#ffffff"
     bordercolor="#666666"
     borderopacity="1.0"
     inkscape:pageopacity="0.0"
     inkscape:pageshadow="2"
     inkscape:zoom="0.35"
     inkscape:cx="618.28571"
     inkscape:cy="329.13995"
     inkscape:document-units="mm"
     inkscape:current-layer="layer3"
     showgrid="false"
     inkscape:window-width="682"
     inkscape:window-height="702"
     inkscape:window-x="0"
     inkscape:window-y="0"
     inkscape:window-maximized="0"
     units="px" />
  <metadata
     id="metadata5">
    <rdf:RDF>
      <cc:Work
         rdf:about="">
        <dc:format>image/svg+xml</dc:format>
        <dc:type
           rdf:resource="http://purl.org/dc/dcmitype/StillImage" />
        <dc:title></dc:title>
      </cc:Work>
    </rdf:RDF>
  </metadata>
  <g
     inkscape:groupmode="layer"
     id="layer3"
     inkscape:label="BackgroundER">
    <circle
       style="fill:#5e2750;stroke-width:0.37020749"
       id="path3734"
       cx="135.31548"
       cy="161.68452"
       r="133.80357"
       transform="translate(0,-26.06665)" />
    <g
       id="g3742"
       transform="matrix(0.02110145,0,0,-0.0234841,17.054596,303.00356)"
       style="fill:#e05a2c;stroke:none">
      <path
         id="path3736"
         d="m 5480,11873 c -251,-25 -548,-115 -756,-228 -578,-315 -957,-851 -1060,-1500 -22,-135 -24,-437 -5,-575 85,-603 435,-1140 953,-1462 192,-119 432,-214 668,-263 154,-33 475,-45 637,-26 697,85 1293,511 1597,1142 270,559 270,1204 2,1764 -303,633 -911,1065 -1611,1145 -84,9 -345,11 -425,3 z"
         inkscape:connector-curvature="0"
         style="fill:#e05a2c" />
      <path
         id="path3738"
         d="m 4196,7730 c -148,-57 -166,-69 -301,-205 -227,-228 -405,-518 -520,-845 -80,-231 -144,-567 -148,-784 l -2,-109 65,-13 c 406,-84 746,-531 850,-1117 24,-136 42,-374 30,-397 -5,-9 -50,-51 -99,-94 -82,-70 -90,-79 -80,-98 18,-33 6,-130 -20,-166 -71,-100 -225,-92 -287,14 -61,104 5,243 121,255 17,2 51,0 77,-4 45,-8 49,-6 122,45 87,60 83,46 66,233 -57,608 -365,1086 -765,1190 -71,18 -218,21 -295,4 -72,-15 -204,-76 -271,-126 -129,-96 -269,-275 -349,-446 -103,-220 -170,-514 -170,-741 v -65 l 74,-50 c 40,-28 76,-48 79,-45 11,12 107,5 134,-10 70,-36 110,-118 93,-190 -11,-51 -38,-86 -86,-113 -138,-79 -297,62 -239,213 9,25 16,46 14,47 -11,7 -155,134 -162,142 -11,14 0,218 19,340 86,557 375,1002 744,1144 44,17 84,31 89,31 5,0 12,42 16,93 48,667 239,1182 588,1590 27,31 46,57 42,57 -17,0 -222,-122 -358,-213 -970,-647 -1609,-1689 -1787,-2912 -31,-217 -33,-205 61,-337 118,-164 249,-316 401,-464 414,-401 913,-695 1538,-905 520,-174 1059,-271 1714,-310 261,-15 980,-6 1206,15 576,55 1016,142 1465,291 657,218 1153,514 1585,945 168,167 263,279 384,449 78,111 77,104 41,334 -158,1010 -659,1906 -1441,2578 -222,190 -526,398 -754,514 -34,18 -34,18 -20,-2 8,-11 52,-65 98,-119 245,-291 428,-652 530,-1044 l 27,-104 73,-17 c 218,-49 387,-199 470,-417 24,-61 26,-80 26,-207 0,-127 -2,-146 -26,-207 -62,-164 -171,-289 -310,-357 -121,-59 -189,-74 -322,-69 -126,5 -204,27 -298,85 -313,189 -407,593 -209,895 74,113 175,196 304,249 59,23 59,23 53,60 -20,125 -105,360 -201,554 -186,377 -483,724 -814,953 l -54,37 -16,-24 c -9,-14 -313,-551 -677,-1195 -399,-708 -666,-1171 -675,-1171 -8,0 -257,454 -651,1190 -351,655 -643,1191 -650,1192 -7,1 -71,-20 -142,-47 z M 6990,4851 c 6,-12 10,-98 10,-210 v -191 h 198 c 141,0 201,-3 210,-12 8,-8 12,-62 12,-178 0,-116 -4,-170 -12,-178 -9,-9 -69,-12 -210,-12 h -198 v -187 c 0,-104 -3,-198 -6,-211 -6,-22 -7,-22 -188,-20 l -181,3 -5,205 -5,205 -200,3 c -174,2 -202,4 -212,19 -16,21 -18,315 -3,344 10,18 23,19 215,19 h 205 v 203 c 0,112 3,207 7,210 3,4 84,7 179,7 161,0 174,-1 184,-19 z"
         inkscape:connector-curvature="0"
         style="fill:#e05a2c" />
      <path
         id="path3740"
         d="m 8129,5967 c -165,-56 -267,-188 -277,-357 -10,-175 75,-317 237,-394 60,-28 75,-31 166,-31 92,0 106,3 167,32 241,114 311,414 145,623 -103,130 -280,181 -438,127 z"
         inkscape:connector-curvature="0"
         style="fill:#e05a2c" />
    </g>
  </g>
  <g
     inkscape:groupmode="layer"
     id="layer2"
     inkscape:label="Background"
     transform="translate(0,-26.06665)">
    <g
       aria-label="i"
       style="font-style:normal;font-variant:normal;font-weight:normal;font-stretch:normal;font-size:96.13183594px;line-height:1.25;font-family:'Abyssinica SIL';-inkscape-font-specification:'Abyssinica SIL, Normal';font-variant-ligatures:normal;font-variant-caps:normal;font-variant-numeric:normal;font-feature-settings:normal;text-align:start;letter-spacing:0px;word-spacing:0px;writing-mode:lr-tb;text-anchor:start;fill:#333333;fill-opacity:1;stroke:none;stroke-width:1.44197738"
       id="use3835"
       transform="matrix(1.4177616,0,0,1.4177616,-66.62756,-96.386749)">
      <path
         d="m 114.42719,150.20953 h 39.7952 v 82.54758 h 30.83917 v 12.0822 H 107.8369 v -12.0822 h 30.83917 v -70.46538 h -24.24888 z m 24.24888,-36.83802 h 15.54632 v 19.68637 h -15.54632 z"
         style="font-style:normal;font-variant:normal;font-weight:normal;font-stretch:normal;font-size:173.03730774px;font-family:monospace;-inkscape-font-specification:'monospace, Normal';font-variant-ligatures:normal;font-variant-caps:normal;font-variant-numeric:normal;font-feature-settings:normal;text-align:start;writing-mode:lr-tb;text-anchor:start;fill:#333333;stroke-width:1.44197738"
         id="path3934"
         inkscape:connector-curvature="0" />
    </g>
  </g>
  <g
     inkscape:label="Layer 1"
     inkscape:groupmode="layer"
     id="layer1"
     transform="translate(0,-26.06665)" />
  <g
     inkscape:groupmode="layer"
     id="layer4"
     inkscape:label="frontER">
    <text
       id="use3835-4"
       y="221.21465"
       x="60.534969"
       style="font-style:normal;font-variant:normal;font-weight:normal;font-stretch:normal;font-size:136.29202271px;line-height:1.25;font-family:'Abyssinica SIL';-inkscape-font-specification:'Abyssinica SIL, Normal';font-variant-ligatures:normal;font-variant-caps:normal;font-variant-numeric:normal;font-feature-settings:normal;text-align:start;letter-spacing:0px;word-spacing:0px;writing-mode:lr-tb;text-anchor:start;fill:#e4d3e2;fill-opacity:1;stroke:none;stroke-width:2.04438019"
       xml:space="preserve"><tspan
         style="font-style:normal;font-variant:normal;font-weight:normal;font-stretch:normal;font-size:245.32565308px;font-family:monospace;-inkscape-font-specification:'monospace, Normal';font-variant-ligatures:normal;font-variant-caps:normal;font-variant-numeric:normal;font-feature-settings:normal;text-align:start;writing-mode:lr-tb;text-anchor:start;fill:#e4d3e2;stroke-width:2.04438019"
         y="221.21465"
         x="60.534969"
         id="tspan3930"
         sodipodi:role="line">i</tspan></text>
  </g>
</svg>
