<?xml version="1.0" encoding="UTF-8" standalone="no"?>
<!-- Created with Inkscape (http://www.inkscape.org/) -->

<svg
   xmlns:dc="http://purl.org/dc/elements/1.1/"
   xmlns:cc="http://creativecommons.org/ns#"
   xmlns:rdf="http://www.w3.org/1999/02/22-rdf-syntax-ns#"
   xmlns:svg="http://www.w3.org/2000/svg"
   xmlns="http://www.w3.org/2000/svg"
   xmlns:sodipodi="http://sodipodi.sourceforge.net/DTD/sodipodi-0.dtd"
   xmlns:inkscape="http://www.inkscape.org/namespaces/inkscape"
   width="250"
   height="215.57115"
   id="svg7009"
   version="1.1"
   inkscape:version="0.48.1 "
   sodipodi:docname="UPenn shield with banner.svg">
  <defs
     id="defs7011">
    <clipPath
       id="clipPath4758"
       clipPathUnits="userSpaceOnUse">
      <path
         inkscape:connector-curvature="0"
         id="path4760"
         d="m 157.41,354.427 84.59,0 0,59.17 -84.59,0 0,-59.17 z" />
    </clipPath>
    <clipPath
       id="clipPath4766"
       clipPathUnits="userSpaceOnUse">
      <path
         inkscape:connector-curvature="0"
         id="path4768"
         d="m 167.344,408.4177 0,-48.7227 56.6115,0 0,48.7227" />
    </clipPath>
  </defs>
  <sodipodi:namedview
     id="base"
     pagecolor="#ffffff"
     bordercolor="#666666"
     borderopacity="1.0"
     inkscape:pageopacity="0.0"
     inkscape:pageshadow="2"
     inkscape:zoom="1"
     inkscape:cx="199.33279"
     inkscape:cy="83.01685"
     inkscape:document-units="px"
     inkscape:current-layer="layer1"
     showgrid="false"
     fit-margin-top="0"
     fit-margin-left="0"
     fit-margin-right="0"
     fit-margin-bottom="0"
     inkscape:window-width="1024"
     inkscape:window-height="721"
     inkscape:window-x="-4"
     inkscape:window-y="-4"
     inkscape:window-maximized="1" />
  <metadata
     id="metadata7014">
    <rdf:RDF>
      <cc:Work
         rdf:about="">
        <dc:format>image/svg+xml</dc:format>
        <dc:type
           rdf:resource="http://purl.org/dc/dcmitype/StillImage" />
        <dc:title></dc:title>
      </cc:Work>
    </rdf:RDF>
  </metadata>
  <g
     inkscape:label="Layer 1"
     inkscape:groupmode="layer"
     id="layer1"
     transform="translate(-203.68489,-357.24255)">
    <g
       id="g4754"
       transform="matrix(4.4244499,0,0,-4.4244499,-537.195,2164.2662)">
      <g
         id="g4756"
         clip-path="url(#clipPath4758)">
        <g
           id="g4762">
          <g
             id="g4764"
             clip-path="url(#clipPath4766)">
            <path
               inkscape:connector-curvature="0"
               d="m 167.5476,368.9616 c 0.5742,0.6401 0.3867,3.8276 1.4402,4.44 1.3677,0.6694 4.9465,-0.1124 6.5999,-2.0401 3.2841,0.8027 6.9091,0.7402 7.9199,-0.2399 0.1767,-1.3324 -0.6953,-1.4166 -0.48,-1.8001 0.9692,-2.2823 -0.6558,-2.1573 -1.2,-2.6399 4.7317,-3.3924 20.2942,-3.7674 27.3602,-0.24 -3.0035,1.2851 -0.9026,1.7615 -1.2,3 -0.1394,0.5965 -0.616,0.9101 -0.24,1.56 2.3115,0.6626 3.6865,0.7876 5.7598,0.48 0.7405,-0.0334 1.1474,-0.1118 1.9201,-0.36 -0.4934,0.6051 6.1943,4.1676 7.2003,1.4401 0.6815,-1.46 1.369,-3.6475 1.32,-3.6001 -0.951,-1.2974 -2.034,-1.366 -3.12,-0.72 -0.456,0.2351 -0.2685,0.7976 -1.08,1.92 -0.251,-0.2474 -0.626,-0.2474 -1.2,-0.8401 0.1365,-0.2198 0.949,-0.9073 0.96,-0.96 -0.761,-0.6348 -1.6985,-2.6348 -2.5202,-3 -2.5535,0.6777 -2.5535,2.8027 -2.52,2.7601 -1.0335,0.0426 -2.346,0.4801 -2.4002,0.4799 -0.3208,-1.3123 0.8667,-1.9373 0.8401,-1.9199 0.4641,-1.0799 1.2766,-2.2674 0.24,-3 -11.7134,-6.3924 -29.6509,-3.7674 -35.1599,0.1199 -1.241,1.4252 0.509,2.9252 0.48,2.8801 0.8415,0.9826 0.3415,1.9201 0.3598,1.9199 -0.8933,0.0627 -2.0183,-0.4373 -2.04,-0.4799 -0.3533,-1.6449 -0.8533,-2.3324 -2.28,-2.88 -0.6358,-0.0149 -2.5108,2.4226 -2.8799,3.24 0.3691,0.3701 0.5566,0.9951 0.6001,0.96 -0.2935,0.1601 -0.7935,0.5976 -0.8401,0.5998 0.0466,-0.002 -0.5784,-2.0647 -0.6001,-2.1599 -1.5408,-0.4673 -2.4783,-0.1548 -3.24,1.0801"
               style="fill:#ffffff;fill-opacity:1;fill-rule:nonzero;stroke:none"
               id="path4770" />
            <path
               inkscape:connector-curvature="0"
               d="m 168.5076,372.6816 c -0.1978,-1.4214 -0.6336,-3.2595 -0.96,-3.8401 0.0469,0.0149 1.4985,-1.8084 3.24,-0.96 0.052,-0.008 0.5254,1.6431 1.0801,3.2401"
               style="fill:none;stroke:#011F5B;stroke-width:0.1926;stroke-linecap:butt;stroke-linejoin:miter;stroke-miterlimit:3.86369991;stroke-opacity:1;stroke-dasharray:none"
               id="path4772" />
            <path
               inkscape:connector-curvature="0"
               d="m 177.8677,408.3215 36.48,0 c -0.008,-0.0386 -0.008,-17.9371 0,-18.24 0.0149,-13.794 -16.3335,-22.1789 -18.72,-22.2 -2.3862,0.0642 -17.4397,6.9055 -17.76,22.2 0.0342,0.2383 0.0388,18.2014 0,18.24"
               style="fill:#ffffff;fill-opacity:1;fill-rule:nonzero;stroke:none"
               id="path4774" />
            <path
               inkscape:connector-curvature="0"
               d="m 177.8677,408.3215 36.48,0 c -0.008,-0.0386 -0.008,-17.9371 0,-18.24 0.0149,-13.794 -16.3335,-22.1789 -18.72,-22.2 -2.3862,0.0642 -17.4397,6.9055 -17.76,22.2 0.0342,0.2383 0.0388,18.2014 0,18.24 z"
               style="fill:none;stroke:#011F5B;stroke-width:0.1926;stroke-linecap:butt;stroke-linejoin:miter;stroke-miterlimit:3.86369991;stroke-opacity:1;stroke-dasharray:none"
               id="path4776" />
            <path
               inkscape:connector-curvature="0"
               d="m 179.3076,406.7617 33.6001,0 c 0.0311,0.0391 0.0311,-16.4808 0,-16.8001 -0.196,-13.6753 -15.5525,-20.8772 -17.52,-20.76 -1.9731,0.0168 -16.1218,7.0652 -16.0801,20.8799 0.001,0.2276 0.004,16.7193 0,16.6802"
               style="fill:#ffffff;fill-opacity:1;fill-rule:nonzero;stroke:none"
               id="path4778" />
            <path
               inkscape:connector-curvature="0"
               d="m 179.3076,406.7617 33.6001,0 c 0.0311,0.0391 0.0311,-16.4808 0,-16.8001 -0.196,-13.6753 -15.5525,-20.8772 -17.52,-20.76 -1.9731,0.0168 -16.1218,7.0652 -16.0801,20.8799 0.001,0.2276 0.004,16.7193 0,16.6802 z"
               style="fill:none;stroke:#011F5B;stroke-width:0.1926;stroke-linecap:butt;stroke-linejoin:miter;stroke-miterlimit:3.86369991;stroke-opacity:1;stroke-dasharray:none"
               id="path4780" />
            <path
               inkscape:connector-curvature="0"
               d="m 178.3477,363.4416 c 8.1735,-4.0427 21.6892,-5.6744 34.6799,0.1201"
               style="fill:none;stroke:#011F5B;stroke-width:0.1926;stroke-linecap:butt;stroke-linejoin:miter;stroke-miterlimit:3.86369991;stroke-opacity:1;stroke-dasharray:none"
               id="path4782" />
            <path
               inkscape:connector-curvature="0"
               d="m 180.5076,369.8015 c 0.0559,-0.2002 0.06,-0.2874 0,-0.48 l 0.1201,0 c 0.003,0.0483 0.008,0.061 0,0 0.0413,0.0566 0.0598,0.0488 0.1201,0 0.074,0.003 0.1961,-0.0293 0.3599,0 0.5047,-0.1199 0.6465,0.1567 0.7199,0.3601 0.001,0.3074 -0.2868,0.4577 -0.4799,0.6001 -0.3343,0.1245 -0.3755,0.2278 -0.3599,0.3598 0.0212,0.1206 0.1072,0.2854 0.3599,0.24 0.0373,0.006 0.4104,-0.0444 0.4799,-0.36 0.0147,0.0437 0.0274,0.1696 0,0.2402 0.0315,-0.0413 0.0589,0.0878 0.1202,0.1198 l -0.1202,0 c -0.002,-0.007 -0.0334,-0.009 -0.12,0 0.0148,10e-4 -0.2569,0.0706 -0.3599,0.1201 -0.2976,0.005 -0.5637,-0.1601 -0.5999,-0.4801 -0.0458,-0.2415 0.1482,-0.379 0.3599,-0.4801 0.2612,-0.134 0.4428,-0.2399 0.3601,-0.4797 0.0137,-0.2338 -0.1963,-0.2244 -0.24,-0.2402 -0.1358,0.04 -0.28,0.0949 -0.3601,0.1201 -0.2197,0.1592 -0.2461,0.2495 -0.24,0.3599 l -0.1201,0 z m -0.48,0.72 -0.1199,0 c 0.041,-0.0596 0.023,-0.1925 0,-0.2398 -0.0449,0.0141 -0.1889,-0.0117 -0.3601,0 -0.1213,-0.0266 -0.2134,-0.0259 -0.24,0 -0.0473,0.0996 -0.05,0.148 0,0.2398 -0.0617,0.1228 -0.0588,0.2226 0,0.36 0.0708,0.0466 0.1873,0.0659 0.3601,0.1201 0.2171,-0.0346 0.3367,-0.0742 0.3599,-0.1201 -0.0159,-0.091 -0.0222,-0.1288 0,-0.1198 -0.009,-0.0435 0.0164,-0.0476 0,0 0.0664,-0.045 0.0989,0.1289 0.1202,0.3599 -0.2201,-0.0689 -0.3177,-0.0738 -0.4801,-0.12 l -0.9601,0 c 0.0527,-0.0563 0.0695,-0.0581 0.12,-0.1201 0.0652,0.041 0.0911,0.0288 0.1202,-0.1198 -0.006,-0.0735 0.0315,-0.4026 0,-0.48 0.0449,-0.1668 0.0644,-0.6314 0,-0.8401 0.0329,-0.0325 -0.022,-0.0486 -0.1202,-0.1201 0.2664,0.01 0.3858,0.0215 0.6001,0 0.3011,0.0473 0.4017,0.0498 0.7201,0 0.1242,0.2309 0.1449,0.31 0.1198,0.48 -0.0615,-0.118 -0.1255,-0.3282 -0.5999,-0.3599 -0.1023,0.002 -0.2372,0.0174 -0.3601,0 0.0122,0.1003 -0.0127,0.199 0,0.3599 -0.0212,-0.005 -0.0295,0.3034 0,0.3601 0.032,-0.005 0.0679,0.002 0.24,0 0.3823,0.0302 0.3829,0.0195 0.48,-0.24 l 0,0.5999 z m -1.7998,0 c -0.0347,0.0876 -0.0713,0.1762 -0.1201,0.4801 l -0.1199,-0.1201 c 0.009,-0.0161 0.005,-0.0224 0,0 -0.1589,-0.0175 -0.2629,-0.0112 -0.4802,0 -0.4131,-0.1404 -0.9097,-0.5139 -0.8399,-1.08 0.1346,-0.3591 0.4712,-0.8121 1.2,-0.5999 0.2017,-0.0217 0.5886,0.1123 0.72,0.1199 l 0,0.1201 c -0.0455,-0.0139 -0.0701,-0.005 -0.1199,0.24 -0.075,0.3198 -0.0725,0.3479 0,0.3598 l 0,0.1202 -0.24,-0.1202 c -0.0137,0.0335 -0.3515,-0.0385 -0.48,0 l 0.1199,-0.1198 c 0.2334,0.0449 0.2417,0.0466 0.3601,-0.3599 -0.0303,0.007 -0.01,-0.0876 0,-0.1201 -0.0476,-0.1045 -0.2004,-0.1743 -0.3601,-0.24 -0.3125,-0.031 -0.7293,0.1777 -0.8401,0.5999 -0.1027,0.5451 0.156,0.8591 0.48,0.9602 0.4345,0.0542 0.6064,-0.1687 0.7202,-0.2402 z m -2.1602,-0.72 0,0 c -0.0454,0.0126 -0.0197,-0.1189 0,-0.1199 -0.0737,-0.0506 -0.2024,-0.1182 -0.36,-0.24 -0.1158,0.0207 -0.2037,-0.006 -0.2398,0 -0.0745,0.0911 -0.0923,0.1363 -0.1201,0.24 -0.0523,0.0969 -0.0813,0.1926 -0.1199,0.3598 0.1028,0.0467 0.207,0.0997 0.3599,0.1202 0.2119,0.1142 0.3381,0.1121 0.3601,0 0.029,-0.0159 0.0354,-0.054 0,-0.1202 0.0588,0.0374 0.0842,0.0411 0.1198,0 0.0113,0.0584 -0.0136,0.2334 -0.1198,0.3602 -0.135,-0.0315 -0.2261,-0.0652 -0.3601,-0.1199 l -0.8399,-0.3601 c -0.0107,-0.001 0.006,0.002 0,0 0.1226,0.0163 0.1511,0.0125 0.24,-0.1201 0.004,-0.0718 0.1458,-0.3736 0.1199,-0.48 0.1167,-0.1219 0.2844,-0.5579 0.3601,-0.72 -0.0283,-0.0764 -0.0755,-0.1082 -0.1201,-0.1199 l 0,-0.1201 c 0.2244,0.1233 0.3342,0.1697 0.6001,0.24 0.216,0.1079 0.3108,0.1401 0.7199,0.24 -0.0461,0.2041 -0.0517,0.2854 -0.1201,0.48 l 0,-0.1199 c -0.0307,-0.0508 -0.0242,-0.27 -0.3598,-0.3601 -0.2034,-0.1091 -0.3365,-0.1355 -0.4802,-0.1199 0.0119,0.0308 -0.0433,0.1167 -0.1199,0.24 0.0185,0.0223 -0.0887,0.3137 -0.1199,0.3599 0.0732,0.0212 0.105,0.0385 0.2398,0.1201 0.3835,0.1101 0.3874,0.1001 0.4802,-0.1201 l 0.1198,0 -0.24,0.48 z m -1.1999,-1.2 c 0.0935,-0.1296 0.1091,-0.2634 -0.3601,-0.5999 -0.0791,-0.0334 -0.134,-0.0705 -0.1199,0 -0.101,-0.0307 -0.1528,0.0362 -0.2399,0.12 l -0.2401,0.36 c -0.0881,0.1321 -0.375,0.5359 -0.3601,0.5999 -0.0303,0.0698 0.0256,0.124 0.1201,0.24 l -0.1201,0 c -0.0329,-0.0637 -0.0747,-0.0952 -0.24,-0.24 -0.1728,-0.0833 -0.2019,-0.0996 -0.24,-0.1199 l 0,-0.1201 c 0.0577,0.0716 0.1287,0.1096 0.24,0 0.0142,-0.0254 0.0413,-0.063 0.3601,-0.48 0.3653,-0.5288 0.3814,-0.5508 0.3599,-0.5998 0.0122,-0.0787 -0.0376,-0.1318 -0.1199,-0.1202 l 0.1199,-0.12 0.6001,0.4801 c 0.1619,0.0789 0.2549,0.1385 0.3601,0.12 0.0291,0.0959 0.0728,0.1154 0.1199,0.12 -0.0745,0.2952 -0.0835,0.3123 -0.1199,0.3599 l -0.1201,0"
               style="fill:#011F5B;fill-opacity:1;fill-rule:evenodd;stroke:none"
               id="path4784" />
            <path
               inkscape:connector-curvature="0"
               d="m 181.4678,363.9216 c -0.007,-0.239 -0.0271,-0.3347 -0.1201,-0.48 l 0.1201,0 c 0.006,-0.0308 0.0156,-0.0183 0,0 0.0532,-0.0337 0.0727,-0.0481 0.1199,0 0.0976,-0.1397 0.2317,-0.2141 0.3601,-0.24 0.6311,-0.2847 0.8759,-0.0313 0.9599,0.1199 0.1487,0.3764 -0.147,0.6303 -0.3601,0.8401 -0.3306,0.2461 -0.3496,0.3706 -0.24,0.4799 0.005,0.1519 0.1531,0.3023 0.48,0.24 0.003,-0.0724 0.4263,-0.2458 0.3602,-0.5998 l 0.1198,0 c -0.0318,0.0337 0.0188,0.1655 0,0.2398 0.0323,-0.044 0.1011,0.0868 0.1201,0.12 -0.084,0.0127 -0.1211,0.0213 -0.1201,0 -0.0825,0.055 -0.3819,0.2161 -0.48,0.24 -0.3569,0.1621 -0.7163,0.0692 -0.8398,-0.24 -0.1321,-0.2707 0.0568,-0.4809 0.3598,-0.7199 0.1856,-0.1653 0.3689,-0.3374 0.24,-0.6001 -0.0867,-0.2266 -0.3306,-0.1494 -0.3598,-0.1199 -0.1746,0.0537 -0.3284,0.1587 -0.4802,0.24 -0.148,0.2134 -0.1534,0.3191 -0.1199,0.48 l -0.1199,0"
               style="fill:#011F5B;fill-opacity:1;fill-rule:evenodd;stroke:none"
               id="path4786" />
            <path
               inkscape:connector-curvature="0"
               d="m 183.3877,362.7216 c 0.0798,-0.0625 0.2075,-0.0984 0.48,-0.24 l 0.48,-0.1201 0,0.1201 c -0.2061,0.0457 -0.2195,0.0689 -0.24,0.1199 0.0381,0.1296 0.2287,0.6631 0.24,0.8401 0.0866,0.0969 0.2602,0.5823 0.3599,0.5998 0.0524,0.0552 0.1071,0.0467 0.2402,0 l 0,0.1202 c -0.0286,-0.0135 -0.3152,0.0723 -0.3601,0.1201 -0.0518,-0.0159 -0.1607,0.0234 -0.24,0.1199 -0.1529,-0.0101 -0.2776,0.0344 -0.3599,0 0.2549,-0.108 0.2635,-0.1646 0.24,-0.24 0.0488,-0.0559 -0.1409,-0.5867 -0.24,-0.72 -0.002,-0.1492 -0.1694,-0.6177 -0.24,-0.72 -0.0942,-0.0261 -0.2434,0.0108 -0.3601,0"
               style="fill:#011F5B;fill-opacity:1;fill-rule:evenodd;stroke:none"
               id="path4788" />
            <path
               inkscape:connector-curvature="0"
               d="m 186.8677,362.4816 c -0.0696,0.1595 -0.188,0.3264 -0.3601,0.48 -0.3833,0.6199 -0.3909,0.6309 -0.5999,0.8399 l -0.1201,0.1201 c -0.005,-0.0305 -0.0767,-0.01 -0.1199,0 -0.0942,0.0291 -0.1623,0.0517 -0.1201,0 -0.0732,0.0129 -0.0761,10e-4 -0.1199,0 0.3101,-0.1365 0.2625,-0.3343 0.24,-0.6001 l -0.24,-0.8399 c -0.113,-0.2226 -0.1589,-0.3193 -0.3601,-0.24 -0.0212,-0.0691 -0.0234,-0.0776 0,-0.12 0.0386,-0.003 0.364,-0.0631 0.48,-0.12 0.0361,0.0203 0.0916,0.004 0.1201,0 0.0652,-0.0278 0.1033,-0.0432 0.1199,0 0.0345,-0.0368 0.0469,-0.0153 0,0 -0.3083,0.1595 -0.2815,0.2638 -0.24,0.48 l 0.24,0.72 c -0.007,0.0562 0.0342,0.188 0,0.24 0.0879,-0.0342 0.1262,-0.0896 0.1201,-0.1201 l 0.8401,-1.0799 c 0.1316,-0.2231 0.2681,-0.4159 0.3599,-0.6001 l 0.1201,0 c -0.009,0.1414 0.0154,0.2618 0,0.24 0.0461,0.1407 0.1645,0.5706 0.24,0.72 -0.007,0.1018 0.1272,0.5928 0.2398,0.72 0.0341,0.019 0.1266,-0.003 0.12,0 l 0.1202,0 c -0.0923,0.0656 -0.3047,0.1135 -0.3601,0.1201 0.0124,0.004 -0.0662,0.0257 -0.1199,0 -0.0947,0.0769 -0.1668,0.0972 -0.24,0.1201 0.0137,-0.009 -0.0169,-0.004 0,0 l -0.1201,0 c 0.3405,-0.1599 0.3596,-0.1951 0.24,-0.8401 -0.061,-0.0532 -0.1768,-0.4595 -0.24,-0.6 l -0.24,0.36"
               style="fill:#011F5B;fill-opacity:1;fill-rule:evenodd;stroke:none"
               id="path4790" />
            <path
               inkscape:connector-curvature="0"
               d="m 189.8677,362.3615 -0.1199,0.1201 c -0.0163,-0.0566 -0.0703,-0.1965 -0.1201,-0.24 -0.0398,0.024 -0.2183,0.0301 -0.48,0.1199 -0.092,-0.0358 -0.2021,-0.0129 -0.24,0 -0.0195,0.1409 -0.011,0.1941 0,0.24 0.0279,0.1899 0.0559,0.2976 0.1199,0.48 0.1365,-0.0137 0.2803,-0.0203 0.3601,0 0.3916,-0.0923 0.5247,-0.164 0.48,-0.24 0.02,-0.0745 0.003,-0.1143 0,-0.1199 0.0102,-0.0346 0.0398,-0.0451 0,0 0.1003,-0.0544 0.1819,0.1265 0.24,0.3599 -0.2561,-0.01 -0.3741,0.008 -0.6001,0 l -1.0799,0.24 0,-0.1199 c 8e-4,0.033 0.0205,0.0271 0,0 0.1538,-0.0237 0.1817,-0.043 0.1199,-0.24 0.035,-0.0498 -10e-4,-0.4163 0,-0.48 -0.0452,-0.2046 -0.1357,-0.7136 -0.24,-0.8401 0.007,-0.1276 -0.0627,-0.1323 -0.24,-0.12 l 0,-0.1199 c 0.3633,7e-4 0.5094,-0.0154 0.8401,-0.1199 0.292,0.009 0.4129,-0.0122 0.8401,-0.1201 0.147,0.1987 0.1912,0.2795 0.24,0.4799 l -0.1201,0 c -0.0195,-0.123 -0.1477,-0.3361 -0.6001,-0.2399 -0.2446,0.0102 -0.4024,0.0583 -0.48,0.1199 -0.0344,0.0553 -0.04,0.1681 0,0.36 -0.0119,-0.021 0.054,0.3167 0.1201,0.3601 0.02,-0.002 0.0647,-0.003 0.24,0 0.4949,-0.1052 0.4929,-0.1171 0.48,-0.3601 l 0.1201,0 0.1199,0.48"
               style="fill:#011F5B;fill-opacity:1;fill-rule:evenodd;stroke:none"
               id="path4792" />
            <path
               inkscape:connector-curvature="0"
               d="m 192.3877,361.5215 c 0.004,-0.3717 -0.01,-0.5057 -0.3601,-0.4801 l 0,-0.1198 c 0.0754,7e-4 0.1335,7e-4 0.24,0 0.0198,2e-4 0.0913,-0.003 0.1201,0 0.1074,-0.0103 0.1687,-0.0135 0.24,0 0.0647,-0.0232 0.1431,-0.0271 0.24,0 -0.2956,0.0876 -0.3066,0.1331 -0.24,0.3601 -0.0418,0.2319 -0.004,0.4841 0,0.8399 0.0559,0.0597 0.0603,0.0746 0.1201,0.12 -0.007,-0.0212 0.1199,-0.2577 0.24,-0.3601 0.2947,-0.6808 0.3289,-0.7455 0.3599,-0.9599 l 0.1201,0 c 0.2363,0.3713 0.4128,0.6701 0.8398,1.32 0.0594,-0.2468 0.0576,-0.6562 0,-0.9599 0.024,-0.3164 -0.0488,-0.3338 -0.24,-0.3601 l 0,-0.1201 c 0.1028,0.0283 0.1744,0.0246 0.48,0 l 0.3601,0 0,0.1201 c -0.1504,-0.0347 -0.1933,-0.0117 -0.24,0.1198 -0.0136,0.1436 0.023,1.0686 0,1.2002 0.0455,0.2799 0.0974,0.2952 0.3599,0.3599 l -0.5999,0.1201 -0.4799,-0.72 -0.1202,-0.3601 c -0.1611,-0.1584 -0.1611,-0.1616 -0.2399,-0.2399 -0.0137,-0.0513 -0.1939,0.2775 -0.24,0.3601 -0.2185,0.3881 -0.2737,0.5017 -0.48,0.9599 -0.1768,0.0305 -0.1872,0.0311 -0.48,0.1199 -0.101,-0.051 -0.1926,-0.0403 -0.24,0 l 0,-0.1199 c 0.2966,-0.0437 0.3955,-0.1083 0.3599,-0.3601 0.0202,-0.0347 0.0151,-0.1269 0,-0.2399 l -0.1199,-0.6001"
               style="fill:#011F5B;fill-opacity:1;fill-rule:evenodd;stroke:none"
               id="path4794" />
            <path
               inkscape:connector-curvature="0"
               d="m 196.1077,361.8815 c -0.042,0.6553 0.4648,0.7293 0.5999,0.72 0.6389,0.0225 0.8654,-0.6338 0.84,-1.08 0.0425,-0.4942 -0.4121,-0.6182 -0.5998,-0.5999 -0.5828,-0.0312 -0.8621,0.5136 -0.8401,0.9599 z m -0.48,-0.1198 c 0.0625,-0.5245 0.4973,-0.9827 1.1999,-0.9602 0.7122,0.001 1.1536,0.4802 1.2,0.9602 -0.0654,0.5649 -0.5742,0.9805 -1.2,0.9599 -0.5913,0 -1.1574,-0.3796 -1.1999,-0.9599"
               style="fill:#011F5B;fill-opacity:1;fill-rule:evenodd;stroke:none"
               id="path4796" />
            <path
               inkscape:connector-curvature="0"
               d="m 199.8276,362.3615 c 0.0989,-0.321 -0.2504,-0.3564 -0.3598,-0.3599 -0.1448,-0.0222 -0.1587,-0.0207 -0.24,0 -0.002,0.241 -0.006,0.2767 0,0.5999 -0.0339,0.1514 -0.0381,0.1899 0.1199,0.24 0.4287,0.01 0.5256,-0.3139 0.4799,-0.48 z m -1.0798,-1.4399 c 0.2644,0.0417 0.2915,0.0444 0.48,0 0.0456,0.0681 0.0964,0.0732 0.1199,0.1198 0.0891,-0.0412 0.1504,-0.038 0.24,0 -0.0223,0.035 -0.1607,0.0479 -0.24,0.1202 -0.022,0.0376 -0.0542,0.3344 -0.1199,0.4799 0.0367,0.1187 0.0344,0.1726 0,0.24 0.1164,-0.002 0.1435,8e-4 0.24,0 0.6582,-0.9135 1.1328,-0.8654 1.4399,-0.8401 l 0,0.1202 c -0.3323,-0.04 -0.623,0.2036 -1.0801,0.84 0.2674,0.065 0.4444,0.2659 0.48,0.48 -0.084,0.2283 -0.3274,0.48 -0.8398,0.48 -0.0842,-0.0603 -0.1987,-0.081 -0.3601,-0.1201 -0.0706,-0.002 -0.1885,-0.0203 -0.24,0 -0.0335,-0.0288 -0.2337,-0.0462 -0.24,0 l 0,-0.1199 c 0.0251,-0.006 0.1611,0.005 0.24,-0.1201 -0.0264,-0.0735 -0.0161,-0.1355 0,-0.4799 0.0425,-0.193 0.1101,-0.8736 0.1201,-0.96 -0.0383,-0.0938 -0.0906,-0.1199 -0.24,-0.1202 l 0,-0.1198"
               style="fill:#011F5B;fill-opacity:1;fill-rule:evenodd;stroke:none"
               id="path4798" />
            <path
               inkscape:connector-curvature="0"
               d="m 201.5076,361.2817 c 0.1255,0.004 0.2553,0.0322 0.4802,0.1199 l 0.5999,0 0,0.1199 c -0.2989,-0.0365 -0.3223,-0.0223 -0.3599,0.12 -0.0376,0.024 -0.1394,0.5796 -0.1201,0.72 -0.0716,0.1448 -0.1641,0.6506 -0.1199,0.72 0.0522,0.0652 0.1045,0.0832 0.24,0.1201 l 0,0.1199 c -0.0744,-0.0554 -0.3684,-0.1145 -0.48,-0.1199 0.011,-0.0117 -0.1037,-0.028 -0.2402,0 -0.1104,-0.0608 -0.2417,-0.0803 -0.24,-0.1201 0.2209,-0.004 0.2568,-0.0495 0.24,-0.1199 0.105,-0.033 0.2063,-0.5857 0.2402,-0.72 0.0198,-0.1598 0.1091,-0.6479 0.1199,-0.7201 -0.0903,-0.1173 -0.2393,-0.1546 -0.3601,-0.2398"
               style="fill:#011F5B;fill-opacity:1;fill-rule:evenodd;stroke:none"
               id="path4800" />
            <path
               inkscape:connector-curvature="0"
               d="m 204.5076,362.2416 c -0.007,-0.1557 -0.052,-0.3606 -0.48,-0.4799 -0.1226,0.007 -0.1543,0.01 -0.1199,0 -0.0837,0.1062 -0.1069,0.2114 -0.24,0.8398 0.0298,0.0127 0.0725,0.0244 0.1199,0 0.0962,0.054 0.5723,0.1238 0.72,-0.3599 z m -0.48,0.8399 c 0.0601,-0.1494 -0.007,-0.3216 -0.3599,-0.3599 -0.0615,0.1334 -0.1472,0.5217 -0.1201,0.5999 -0.032,0.0857 -0.0205,0.0971 0,0.1201 0.3296,0.0488 0.4575,-0.1355 0.48,-0.3601 z m -0.72,-1.56 c 0.084,0.0473 0.1194,0.0605 0.3601,0.12 0.009,-0.008 0.1167,0.0108 0.24,0 0.0916,0.0487 0.1956,0.0669 0.24,0.1202 0.626,0.0839 0.7122,0.4038 0.72,0.5998 -0.0852,0.1543 -0.2329,0.4446 -0.8401,0.3601 0.3415,0.1675 0.4114,0.3557 0.3601,0.48 -0.0376,0.2788 -0.2688,0.4421 -0.72,0.3601 -0.0224,-0.0149 -0.1218,-0.0383 -0.24,-0.1201 -0.07,0.0342 -0.1621,0.009 -0.2399,0 -0.1224,-0.032 -0.2037,-0.0425 -0.24,0 l 0,-0.1201 c -0.001,-0.006 0.1037,0.009 0.1198,0 0.1057,-0.085 0.1223,-0.097 0.24,-0.8399 0.2188,-0.7815 0.2078,-0.8113 0,-0.8401 l 0,-0.12"
               style="fill:#011F5B;fill-opacity:1;fill-rule:evenodd;stroke:none"
               id="path4802" />
            <path
               inkscape:connector-curvature="0"
               d="m 205.4678,363.2016 c 0.0166,-0.1013 0.1103,-0.476 0.1199,-0.6001 0.1623,-0.4526 0.6923,-0.3748 0.9599,-0.24 0.2864,0.0184 0.7037,0.177 0.72,0.48 0.0889,0.2139 -0.0288,0.728 -0.1199,0.96 -0.002,0.0932 -0.0911,0.3918 -0.1201,0.4802 0.0474,0.0283 0.1416,0.0574 0.24,0.1199 l -0.3599,0 c -0.0779,-0.0662 -0.1386,-0.0767 -0.24,-0.1199 l -0.1201,0 0,-0.1201 c 0.2539,0.0666 0.3169,0.081 0.48,-0.3601 0.0823,-0.3826 0.1592,-0.7124 0.1201,-0.8399 -0.022,-0.3584 -0.4309,-0.4744 -0.48,-0.48 -0.1147,-0.0395 -0.2968,-0.0713 -0.4799,0 -0.1421,0.044 -0.2249,0.1671 -0.3602,0.72 -0.2287,0.6697 -0.2141,0.6799 0,0.8398 0.056,-0.0419 0.0845,-0.0307 0.1202,0 l -0.1202,0 -0.8398,-0.2399 c 0.2239,2e-4 0.2673,0.009 0.3599,-0.2398 l 0.1201,-0.3601"
               style="fill:#011F5B;fill-opacity:1;fill-rule:evenodd;stroke:none"
               id="path4804" />
            <path
               inkscape:connector-curvature="0"
               d="m 208.2278,363.3215 c 0.1438,-0.1707 0.1985,-0.2527 0.24,-0.3599 l 0.1199,0 c -0.0105,0.003 -0.0127,0.0184 0,0 0.0253,0.0322 0.0498,0.035 0,0 0.2202,0.0662 0.3701,0.1023 0.4799,0.1199 0.6604,0.2671 0.6538,0.6135 0.6001,0.8401 -0.1594,0.3083 -0.5551,0.2932 -0.8401,0.24 -0.435,0.0173 -0.5385,0.0942 -0.5998,0.24 -0.0442,0.1191 -0.0464,0.3262 0.24,0.4799 0.0478,-0.0302 0.4775,0.1287 0.72,-0.24 l 0,0.1202 c 0.004,0.0327 -0.0542,0.1613 -0.1202,0.2399 0.0535,-0.048 0.009,0.0921 0,0.12 -0.071,-0.0382 -0.1039,-0.0567 -0.1198,-0.12 -0.0669,0.0328 -0.3985,-0.0515 -0.48,-0.1201 -0.3801,-0.1023 -0.5716,-0.4096 -0.48,-0.7199 0.1428,-0.2779 0.4302,-0.3027 0.7198,-0.24 0.3534,-0.0264 0.6095,-0.0276 0.7201,-0.24 0.0872,-0.284 -0.1438,-0.3916 -0.2399,-0.3601 -0.1109,-0.1079 -0.2972,-0.1353 -0.4802,-0.1199 -0.2449,-0.004 -0.3253,0.0686 -0.3599,0.24 l -0.1199,-0.1201"
               style="fill:#011F5B;fill-opacity:1;fill-rule:evenodd;stroke:none"
               id="path4806" />
            <path
               inkscape:connector-curvature="0"
               d="m 209.6677,369.4416 c -0.0554,0.0554 0.0996,-0.1687 0.1199,-0.24 l 0.1201,0 c -0.0161,0.2483 0.0454,0.4788 0.1199,0.5999 l 0.1201,0.72 c 0.1294,0.2316 0.1885,0.3005 0.3599,0.36 -0.2703,0.0159 -0.3577,10e-4 -0.48,0 l 0,-0.1198 c -0.006,0.0376 0.0803,0.0446 0.1201,0 -0.008,-0.1265 -0.1916,-0.7791 -0.24,-0.9602 -0.0351,-0.117 -0.04,-0.1331 0,-0.2398 -0.5976,0.8176 -0.7129,0.9822 -0.7199,1.0798 -0.012,0.006 0.006,0.01 0.1198,0 l 0,0.1202 -0.6,-0.1202 0,-0.12 c 0.0979,0.0763 0.1003,0.0768 0.36,-0.2398 l 0.6001,-0.8401"
               style="fill:#011F5B;fill-opacity:1;fill-rule:evenodd;stroke:none"
               id="path4808" />
            <path
               inkscape:connector-curvature="0"
               d="m 211.1077,370.6415 c 0.0791,-0.1814 0.1557,-0.3715 0.24,-0.6001 -0.052,0.0376 -0.0938,0.0318 -0.1199,0 -0.1726,0.0286 -0.272,0.0393 -0.3601,0 l 0.24,0.6001 z m -0.24,-0.7199 c 0.0976,0.0661 0.2232,0.0683 0.3601,0.1198 0.072,-0.0481 0.1011,-0.05 0.1199,0 0.042,-0.0893 0.176,-0.4169 0.1201,-0.4797 0.0576,-0.0305 -0.005,-0.0568 -0.1201,-0.1201 0.1296,8e-4 0.2522,0.0154 0.3599,0 0.1642,0.0198 0.2243,0.0159 0.2402,0 l 0,0.1201 c -0.0613,-0.0447 -0.1058,-0.0378 -0.2402,0.3599 -0.0794,0.1379 -0.3526,0.7832 -0.3599,0.9599 -0.0833,0.0535 -0.0999,0.1087 -0.1199,0.1201 l -0.1201,0 c 0.0407,-0.008 0.0259,-0.0537 0,-0.1201 -0.0315,-0.0832 -0.4644,-1.1611 -0.6001,-1.3198 -0.001,-0.0627 -0.0667,-0.0764 -0.1199,-0.1201 0.0542,-0.0117 0.1641,-0.01 0.24,0 -0.0393,-0.009 0.0312,-0.0105 0.1201,0 0.063,-0.013 0.1414,-0.0142 0.1199,0 -0.0347,0.0528 -0.1604,0.0659 -0.1199,0.1201 -0.043,0.0767 -5e-4,0.178 0,0.2398 l 0.1199,0.1201"
               style="fill:#011F5B;fill-opacity:1;fill-rule:evenodd;stroke:none"
               id="path4810" />
            <path
               inkscape:connector-curvature="0"
               d="m 213.6277,369.8015 c -0.0833,0.0688 -0.1836,0.1987 -0.24,0.3601 -0.4138,0.4409 -0.4202,0.4495 -0.6001,0.6001 l -0.1199,0.1198 c 0.0266,-0.0475 -0.0298,-0.0366 -0.1201,0 -0.0173,-0.0151 -0.0708,-0.002 -0.1199,0 0.0277,-0.0368 0.0259,-0.0466 0,-0.1198 0.2383,-0.0206 0.2129,-0.19 0.1199,-0.3601 l -0.1199,-0.72 c 0.001,-0.2532 -0.0285,-0.3379 -0.2399,-0.3601 0.0402,0.0127 0.039,0.005 0,0 0.0893,-0.0281 0.3422,-0.0513 0.3598,0 0.1011,-0.0694 0.1445,-0.0786 0.24,-0.1199 -0.0217,0.0225 0.009,0.0127 0,0 0.0471,0.022 0.0554,0.0413 0,0.1199 -0.227,0.0383 -0.2124,0.1279 -0.1199,0.3601 l 0,0.6001 c 0.0611,0.0214 0.0852,0.135 0.1199,0.2398 0.005,-0.0853 0.0381,-0.1285 0.1201,-0.1199 l 0.5999,-0.96 c 0.135,-0.0862 0.2505,-0.2363 0.3601,-0.3601 l 0,-0.1199 0,0.1199 c 0.0488,0.1047 0.0606,0.2075 0.1201,0.24 -0.043,0.0693 0.0232,0.4392 0,0.48 0.0613,0.1752 0.136,0.5974 0.24,0.72 2e-4,0.0119 0.0725,9e-4 0.1199,0 -0.0349,0.0603 -0.2007,0.0829 -0.24,0.12 0.006,-0.0319 -0.0557,-0.0199 -0.1199,0 -0.0527,0.0105 -0.1091,0.0218 -0.1201,0 -0.0354,0.0288 -0.0591,0.0299 -0.1199,0 0.2517,-0.081 0.2683,-0.1088 0.24,-0.6001 -0.0703,-0.1084 -0.1357,-0.458 -0.1201,-0.4797 l -0.24,0.2398"
               style="fill:#011F5B;fill-opacity:1;fill-rule:evenodd;stroke:none"
               id="path4812" />
            <path
               inkscape:connector-curvature="0"
               d="m 215.1878,369.9216 c 0.0302,-0.1734 0.0385,-0.3772 0,-0.6001 0.005,0.0322 -0.0369,0.04 -0.1202,0.1201 -0.1057,-0.021 -0.196,0.0205 -0.24,0 l 0.3602,0.48 z m -0.4802,-0.48 c 0.1416,-0.0703 0.2609,-0.1076 0.36,-0.1201 0.0996,-0.05 0.1263,-0.0611 0.1202,-0.1199 0.0505,0.003 0.0664,-0.3491 0,-0.3601 0.0366,-0.0776 -0.0313,-0.083 -0.1202,-0.1199 0.0811,-0.0268 0.2022,-0.0515 0.3601,-0.1201 0.1007,-0.0124 0.1563,-0.0349 0.24,0 -0.1067,0.0356 -0.1467,0.0562 -0.1201,0.48 -0.0476,0.1494 -0.0879,0.8454 -0.1199,0.9599 0.0245,0.1314 0.0274,0.1888 0,0.2403 -0.0656,-0.0171 -0.0951,-0.0554 -0.1201,-0.1201 -0.0798,-0.0588 -0.8535,-0.9421 -0.9599,-1.0801 -0.0979,-0.0286 -0.1643,-0.021 -0.24,0 l 0,-0.1199 c 0.0578,0.0462 0.1624,0.0134 0.24,0 -0.0428,0.003 0.0234,-0.0207 0.1201,0 0.0461,-0.0708 0.1199,-0.0964 0.1199,-0.1201 l 0,0.1201 c -0.0306,-0.0156 -0.1451,0.0361 -0.1199,0.1199 0.0168,0.041 0.0915,0.1235 0.1199,0.1201 l 0.1199,0.24"
               style="fill:#011F5B;fill-opacity:1;fill-rule:evenodd;stroke:none"
               id="path4814" />
            <path
               inkscape:connector-curvature="0"
               d="m 217.468,368.8415 -0.12,0 c 0.0265,0.0115 -0.0545,-0.0869 -0.1202,-0.1199 -0.006,0.0381 -0.1343,0.084 -0.24,0.1199 -0.1367,0.0884 -0.2104,0.1318 -0.24,0.1201 0.0332,0.1467 0.0552,0.1868 0.1199,0.24 0.0335,0.1248 0.0859,0.2034 0.1201,0.3601 0.1624,-0.0691 0.2654,-0.1074 0.3602,-0.1201 0.2285,-0.1528 0.3045,-0.2405 0.24,-0.3601 0.002,0.006 -0.022,-0.0213 0,0 -0.0285,-0.0549 -0.0105,-0.0701 0,-0.1199 0.031,0.0286 0.1445,0.1531 0.24,0.3599 -0.174,0.0158 -0.255,0.0573 -0.36,0.1201 l -0.8403,0.3599 c 0.0342,-0.007 0.0469,-0.0169 0,0 0.1291,-0.0874 0.1438,-0.1091 0.1201,-0.2398 -0.0688,-0.0588 -0.2036,-0.3406 -0.2402,-0.3601 -0.0752,-0.1829 -0.2923,-0.5652 -0.3599,-0.72 -0.0784,-0.0241 -0.1308,-0.0117 -0.24,0 0.2134,-0.1391 0.3152,-0.1855 0.48,-0.24 0.2625,-0.1643 0.3442,-0.2092 0.6001,-0.3601 0.1905,0.0906 0.2468,0.1446 0.3602,0.2401 l -0.1202,0 c -0.0366,-0.0135 -0.1934,-0.1527 -0.48,0 -0.1914,0.092 -0.2922,0.1667 -0.3601,0.2399 0.0205,0.0449 0.0498,0.1355 0.1199,0.24 0.001,0.0244 0.1491,0.2766 0.1201,0.3601 0.1042,-0.0705 0.1367,-0.0815 0.24,-0.1201 0.3562,-0.1968 0.3513,-0.2055 0.24,-0.3599 l 0.1201,-0.1201 0.2402,0.48"
               style="fill:#011F5B;fill-opacity:1;fill-rule:evenodd;stroke:none"
               id="path4816" />
            <path
               inkscape:connector-curvature="0"
               d="m 212.6677,364.6415 c -0.132,1.4441 -3.9052,1.8689 -4.6799,2.3999 -0.9699,0.8685 0.1501,1.4425 0,2.2801 -0.0129,0.4243 -0.5222,1.6111 -0.1201,1.6801 5.678,1.7049 9.4306,-0.2934 11.6403,-2.52 0.2275,-0.2058 -0.3315,-0.521 -0.72,-0.9601 -0.243,-0.3455 -1.375,-2.241 -1.8002,-2.16 -1.333,0.3176 -2.4231,1.5715 -2.52,2.6401"
               style="fill:none;stroke:#011F5B;stroke-width:0.1926;stroke-linecap:butt;stroke-linejoin:miter;stroke-miterlimit:3.86369991;stroke-opacity:1;stroke-dasharray:none"
               id="path4818" />
            <path
               inkscape:connector-curvature="0"
               d="m 216.9878,366.3215 c -1.3615,3.0476 -9.6335,2.6098 -7.8,1.56 0.8027,-0.0886 2.9711,-0.6821 3.8398,-1.3198 0.4075,-0.356 1.3716,-2.5776 -0.1199,-3.1201"
               style="fill:none;stroke:#011F5B;stroke-width:0.1926;stroke-linecap:butt;stroke-linejoin:miter;stroke-miterlimit:3.86369991;stroke-opacity:1;stroke-dasharray:none"
               id="path4820" />
            <path
               inkscape:connector-curvature="0"
               d="m 215.3076,371.1216 c 0.9998,1.3529 5.8644,3.3612 7.0804,2.04 1.378,-1.5479 -1.1705,-2.7862 -2.4,-2.3999 -1.316,0.3938 -0.587,1.4929 0.12,1.6799 0.264,-0.0105 0.8025,0.1695 1.2,-0.24 0.2385,-0.3445 -0.5,-1.0132 -1.08,-0.8401"
               style="fill:none;stroke:#011F5B;stroke-width:0.1926;stroke-linecap:butt;stroke-linejoin:miter;stroke-miterlimit:3.86369991;stroke-opacity:1;stroke-dasharray:none"
               id="path4822" />
            <path
               inkscape:connector-curvature="0"
               d="m 222.868,372.4416 c 0.2995,-1.2842 1.167,-2.7763 0.96,-3.6001 0.037,0.0393 -0.398,-1.4766 -2.64,-0.8399 -0.5155,0.0938 -1.1975,1.8497 -1.8,3.12"
               style="fill:none;stroke:#011F5B;stroke-width:0.1926;stroke-linecap:butt;stroke-linejoin:miter;stroke-miterlimit:3.86369991;stroke-opacity:1;stroke-dasharray:none"
               id="path4824" />
            <path
               inkscape:connector-curvature="0"
               d="m 219.988,370.1616 c -0.621,-0.1597 -0.96,-0.4605 -1.2,-0.8401"
               style="fill:none;stroke:#011F5B;stroke-width:0.1926;stroke-linecap:butt;stroke-linejoin:miter;stroke-miterlimit:3.86369991;stroke-opacity:1;stroke-dasharray:none"
               id="path4826" />
            <path
               inkscape:connector-curvature="0"
               d="m 212.1878,367.6415 c 0.0656,-0.2807 0.5595,-0.5859 0.5998,-0.9599 -0.9702,0.4787 -1.0337,0.4321 -1.5598,0.8399 -0.2478,0.122 -2.3323,0.1005 -2.28,0.6001 0.1921,0.6579 2.5869,0.5595 3.3598,0.36 8e-4,0.0557 -0.2307,-0.3362 -0.1198,-0.8401"
               style="fill:#011F5B;fill-opacity:1;fill-rule:nonzero;stroke:none"
               id="path4828" />
            <path
               inkscape:connector-curvature="0"
               d="m 212.1878,367.6415 c 0.0656,-0.2807 0.5595,-0.5859 0.5998,-0.9599 -0.9702,0.4787 -1.0337,0.4321 -1.5598,0.8399 -0.2478,0.122 -2.3323,0.1005 -2.28,0.6001 0.1921,0.6579 2.5869,0.5595 3.3598,0.36 8e-4,0.0557 -0.2307,-0.3362 -0.1198,-0.8401 z"
               style="fill:none;stroke:#011F5B;stroke-width:0.1926;stroke-linecap:butt;stroke-linejoin:miter;stroke-miterlimit:3.86369991;stroke-opacity:1;stroke-dasharray:none"
               id="path4830" />
            <path
               inkscape:connector-curvature="0"
               d="m 215.3076,367.7617 c 0.002,-0.035 0.7732,-1.6324 1.6802,-1.4402 0.3832,0.0564 -0.3162,0.9023 -1.6802,1.4402"
               style="fill:#011F5B;fill-opacity:1;fill-rule:evenodd;stroke:none"
               id="path4832" />
            <path
               inkscape:connector-curvature="0"
               d="m 215.3076,367.7617 c 0.002,-0.035 0.7732,-1.6324 1.6802,-1.4402 0.3832,0.0564 -0.3162,0.9023 -1.6802,1.4402 z"
               style="fill:none;stroke:#011F5B;stroke-width:0.1926;stroke-linecap:butt;stroke-linejoin:miter;stroke-miterlimit:3.86369991;stroke-opacity:1;stroke-dasharray:none"
               id="path4834" />
            <path
               inkscape:connector-curvature="0"
               d="m 181.8276,366.5617 c 6.138,-3.6735 21.3453,-3.3218 27.48,0"
               style="fill:none;stroke:#011F5B;stroke-width:0.1926;stroke-linecap:butt;stroke-linejoin:miter;stroke-miterlimit:3.86369991;stroke-opacity:1;stroke-dasharray:none"
               id="path4836" />
            <path
               inkscape:connector-curvature="0"
               d="m 223.228,371.2416 c -0.317,-0.4165 -0.5095,-0.6477 -0.96,-0.7201"
               style="fill:none;stroke:#011F5B;stroke-width:0.1926;stroke-linecap:butt;stroke-linejoin:miter;stroke-miterlimit:3.86369991;stroke-opacity:1;stroke-dasharray:none"
               id="path4838" />
            <path
               inkscape:connector-curvature="0"
               d="m 223.228,370.5215 c -0.317,-0.4054 -0.259,-0.4019 -0.72,-0.4801"
               style="fill:none;stroke:#011F5B;stroke-width:0.1926;stroke-linecap:butt;stroke-linejoin:miter;stroke-miterlimit:3.86369991;stroke-opacity:1;stroke-dasharray:none"
               id="path4840" />
            <path
               inkscape:connector-curvature="0"
               d="m 223.588,370.0414 c -0.4055,-0.448 -0.304,-0.5634 -0.72,-0.5998"
               style="fill:none;stroke:#011F5B;stroke-width:0.1926;stroke-linecap:butt;stroke-linejoin:miter;stroke-miterlimit:3.86369991;stroke-opacity:1;stroke-dasharray:none"
               id="path4842" />
            <path
               inkscape:connector-curvature="0"
               d="m 223.828,369.4416 c -0.4195,-0.4089 -0.278,-0.3672 -0.72,-0.48"
               style="fill:none;stroke:#011F5B;stroke-width:0.1926;stroke-linecap:butt;stroke-linejoin:miter;stroke-miterlimit:3.86369991;stroke-opacity:1;stroke-dasharray:none"
               id="path4844" />
            <path
               inkscape:connector-curvature="0"
               d="m 220.228,371.3615 c 0.2735,-0.1514 0.33,-0.3594 0.36,-0.5998"
               style="fill:none;stroke:#011F5B;stroke-width:0.1926;stroke-linecap:butt;stroke-linejoin:miter;stroke-miterlimit:3.86369991;stroke-opacity:1;stroke-dasharray:none"
               id="path4846" />
            <path
               inkscape:connector-curvature="0"
               d="m 221.308,371.9616 c -0.011,-0.3247 0.3865,-0.7515 0.36,-0.96"
               style="fill:none;stroke:#011F5B;stroke-width:0.1926;stroke-linecap:butt;stroke-linejoin:miter;stroke-miterlimit:3.86369991;stroke-opacity:1;stroke-dasharray:none"
               id="path4848" />
            <path
               inkscape:connector-curvature="0"
               d="m 178.4678,364.6415 c 0.1806,1.5008 3.8442,2.0003 4.5598,2.6402 1.0288,0.7595 -0.0457,1.1145 0,1.9199 0.1172,0.4565 1.147,1.9624 0.24,2.28 -4.721,1.3943 -10.3672,-0.4384 -11.5198,-3 -0.137,-0.2433 2.3325,-3.355 2.7598,-3.24 1.3308,0.2837 2.2959,1.8045 2.4001,2.88"
               style="fill:none;stroke:#011F5B;stroke-width:0.1926;stroke-linecap:butt;stroke-linejoin:miter;stroke-miterlimit:3.86369991;stroke-opacity:1;stroke-dasharray:none"
               id="path4850" />
            <path
               inkscape:connector-curvature="0"
               d="m 174.2676,366.3215 c 1.3719,3.1126 9.6438,2.6748 7.8,1.56 -0.7922,-0.0234 -3.0583,-0.447 -3.8398,-1.3198 -0.3247,-0.365 -1.3496,-2.02 0.24,-3.2402"
               style="fill:none;stroke:#011F5B;stroke-width:0.1926;stroke-linecap:butt;stroke-linejoin:miter;stroke-miterlimit:3.86369991;stroke-opacity:1;stroke-dasharray:none"
               id="path4852" />
            <path
               inkscape:connector-curvature="0"
               d="m 171.3877,370.0414 c 0.5898,-0.172 0.5913,-0.2739 0.8401,-0.5998"
               style="fill:none;stroke:#011F5B;stroke-width:0.125;stroke-linecap:butt;stroke-linejoin:miter;stroke-miterlimit:3.86369991;stroke-opacity:1;stroke-dasharray:none"
               id="path4854" />
            <path
               inkscape:connector-curvature="0"
               d="m 175.7076,371.4816 c -0.9957,1.2654 -5.6134,3.0662 -6.8399,1.68 -1.3677,-1.483 1.1809,-2.7212 2.3999,-2.2801 1.3264,0.3389 0.5974,1.438 -0.1199,1.5601 -0.2534,0.0544 -0.7922,0.2346 -1.1999,-0.24 -0.2283,-0.2795 0.51,-0.9482 1.1999,-0.72"
               style="fill:none;stroke:#011F5B;stroke-width:0.1926;stroke-linecap:butt;stroke-linejoin:miter;stroke-miterlimit:3.86369991;stroke-opacity:1;stroke-dasharray:none"
               id="path4856" />
            <path
               inkscape:connector-curvature="0"
               d="m 179.0676,367.7617 c -0.0554,-0.3357 -0.5493,-0.6409 -0.5998,-0.9602 0.9804,0.4238 0.9717,0.5014 1.5598,0.72 1.2871,0.5473 2.467,0.0141 2.4001,0.4801 -0.1774,0.6912 -2.6965,0.7444 -3.4799,0.5999 0.01,7e-4 0.241,-0.3911 0.1198,-0.8398"
               style="fill:#011F5B;fill-opacity:1;fill-rule:nonzero;stroke:none"
               id="path4858" />
            <path
               inkscape:connector-curvature="0"
               d="m 179.0676,367.7617 c -0.0554,-0.3357 -0.5493,-0.6409 -0.5998,-0.9602 0.9804,0.4238 0.9717,0.5014 1.5598,0.72 1.2871,0.5473 2.467,0.0141 2.4001,0.4801 -0.1774,0.6912 -2.6965,0.7444 -3.4799,0.5999 0.01,7e-4 0.241,-0.3911 0.1198,-0.8398 z"
               style="fill:none;stroke:#011F5B;stroke-width:0.1926;stroke-linecap:butt;stroke-linejoin:miter;stroke-miterlimit:3.86369991;stroke-opacity:1;stroke-dasharray:none"
               id="path4860" />
            <path
               inkscape:connector-curvature="0"
               d="m 175.9478,367.7617 c 0.008,0.0302 -0.7627,-1.5674 -1.6802,-1.4402 -0.3723,0.1213 0.3266,0.9673 1.6802,1.4402"
               style="fill:#011F5B;fill-opacity:1;fill-rule:evenodd;stroke:none"
               id="path4862" />
            <path
               inkscape:connector-curvature="0"
               d="m 175.9478,367.7617 c 0.008,0.0302 -0.7627,-1.5674 -1.6802,-1.4402 -0.3723,0.1213 0.3266,0.9673 1.6802,1.4402 z"
               style="fill:none;stroke:#011F5B;stroke-width:0.1926;stroke-linecap:butt;stroke-linejoin:miter;stroke-miterlimit:3.86369991;stroke-opacity:1;stroke-dasharray:none"
               id="path4864" />
            <path
               inkscape:connector-curvature="0"
               d="m 170.6677,370.0414 c 0.4903,-0.2463 0.5386,-0.0129 0.8399,0.1202"
               style="fill:none;stroke:#011F5B;stroke-width:0.1926;stroke-linecap:butt;stroke-linejoin:miter;stroke-miterlimit:3.86369991;stroke-opacity:1;stroke-dasharray:none"
               id="path4866" />
            <path
               inkscape:connector-curvature="0"
               d="m 170.4277,369.4416 c 0.2266,-0.197 0.5364,-0.1316 0.8399,0"
               style="fill:none;stroke:#011F5B;stroke-width:0.1926;stroke-linecap:butt;stroke-linejoin:miter;stroke-miterlimit:3.86369991;stroke-opacity:1;stroke-dasharray:none"
               id="path4868" />
            <path
               inkscape:connector-curvature="0"
               d="m 170.3076,368.9616 c 0.1819,-0.2583 0.4434,-0.2021 0.72,-0.1201"
               style="fill:none;stroke:#011F5B;stroke-width:0.1926;stroke-linecap:butt;stroke-linejoin:miter;stroke-miterlimit:3.86369991;stroke-opacity:1;stroke-dasharray:none"
               id="path4870" />
            <path
               inkscape:connector-curvature="0"
               d="m 170.0676,368.3615 c 0.2571,-0.218 0.5376,-0.1287 0.96,0"
               style="fill:none;stroke:#011F5B;stroke-width:0.1926;stroke-linecap:butt;stroke-linejoin:miter;stroke-miterlimit:3.86369991;stroke-opacity:1;stroke-dasharray:none"
               id="path4872" />
            <path
               inkscape:connector-curvature="0"
               d="m 171.0276,371.4816 c -0.263,-0.2065 -0.3198,-0.4142 -0.3599,-0.7199"
               style="fill:none;stroke:#011F5B;stroke-width:0.1926;stroke-linecap:butt;stroke-linejoin:miter;stroke-miterlimit:3.86369991;stroke-opacity:1;stroke-dasharray:none"
               id="path4874" />
            <path
               inkscape:connector-curvature="0"
               d="m 169.9478,372.0815 c 0.0214,-0.3794 -0.3763,-0.8064 -0.3602,-0.9599"
               style="fill:none;stroke:#011F5B;stroke-width:0.1926;stroke-linecap:butt;stroke-linejoin:miter;stroke-miterlimit:3.86369991;stroke-opacity:1;stroke-dasharray:none"
               id="path4876" />
            <path
               inkscape:connector-curvature="0"
               d="m 178.3477,364.7617 c -0.1028,-0.2554 0.003,-0.6492 0.3599,-0.3601 0.2629,0.3269 0.3107,1.0214 1.56,1.32 0.6789,0.1079 2.1321,0.4813 2.04,0.5999 -0.5188,0.5537 -0.4311,0.2544 -0.6,0.3601 -0.044,0.006 -2.5047,-0.3296 -3.3599,-1.9199"
               style="fill:#011F5B;fill-opacity:1;fill-rule:nonzero;stroke:none"
               id="path4878" />
            <path
               inkscape:connector-curvature="0"
               d="m 178.3477,364.7617 c -0.1028,-0.2554 0.003,-0.6492 0.3599,-0.3601 0.2629,0.3269 0.3107,1.0214 1.56,1.32 0.6789,0.1079 2.1321,0.4813 2.04,0.5999 -0.5188,0.5537 -0.4311,0.2544 -0.6,0.3601 -0.044,0.006 -2.5047,-0.3296 -3.3599,-1.9199 z"
               style="fill:none;stroke:#011F5B;stroke-width:0.1926;stroke-linecap:butt;stroke-linejoin:miter;stroke-miterlimit:3.86369991;stroke-opacity:1;stroke-dasharray:none"
               id="path4880" />
            <path
               inkscape:connector-curvature="0"
               d="m 179.3076,396.5617 c 0.0601,-0.0232 0.0135,10.2391 0,10.2 l 33.6001,0 c 0.0164,0.0391 0.0164,-5.4649 0,-10.2 l -33.6001,0"
               style="fill:#990000;fill-opacity:1;fill-rule:nonzero;stroke:none"
               id="path4882" />
            <path
               inkscape:connector-curvature="0"
               d="m 179.3076,396.5617 c 0.0601,-0.0232 0.0135,10.2391 0,10.2 l 33.6001,0 c 0.0164,0.0391 0.0164,-5.4649 0,-10.2 l -33.6001,0 z"
               style="fill:none;stroke:#990000;stroke-width:0.1926;stroke-linecap:butt;stroke-linejoin:miter;stroke-miterlimit:3.86369991;stroke-opacity:1;stroke-dasharray:none"
               id="path4884" />
            <path
               inkscape:connector-curvature="0"
               d="m 181.2278,381.6816 c 1.2666,-2.7641 2.8645,-4.9517 5.1599,-6.8401 l 9.72,9.96 9.48,-9.72 c 1.8925,1.7947 3.7841,3.9443 5.1601,6.4802 l -14.6401,14.0398 -14.8799,-14.0398 0,0.1199"
               style="fill:#011F5B;fill-opacity:1;fill-rule:nonzero;stroke:none"
               id="path4886" />
            <path
               inkscape:connector-curvature="0"
               d="m 181.2278,381.6816 c 1.2666,-2.7641 2.8645,-4.9517 5.1599,-6.8401 l 9.72,9.96 9.48,-9.72 c 1.8925,1.7947 3.7841,3.9443 5.1601,6.4802 l -14.6401,14.0398 -14.8799,-14.0398 0,0.1199 z"
               style="fill:none;stroke:#011F5B;stroke-width:0.1925;stroke-linecap:butt;stroke-linejoin:miter;stroke-miterlimit:3.86369991;stroke-opacity:1;stroke-dasharray:none"
               id="path4888" />
            <path
               inkscape:connector-curvature="0"
               d="m 179.3076,396.5617 33.6001,0"
               style="fill:none;stroke:#011F5B;stroke-width:0.1926;stroke-linecap:butt;stroke-linejoin:miter;stroke-miterlimit:3.86369991;stroke-opacity:1;stroke-dasharray:none"
               id="path4890" />
            <path
               inkscape:connector-curvature="0"
               d="m 204.5076,404.2417 0.9602,0 c 0.6218,0.174 0.8662,0.5625 1.5598,0.5998 0.488,-0.0373 0.7209,-0.3657 1.0801,-0.3598 0.3113,-0.006 0.7827,0.3444 1.32,0.3598 0.5081,-0.0154 0.7694,-0.3327 1.0799,-0.48 0.343,-0.132 0.7463,-0.125 1.2,-0.1198 -0.0389,-0.3116 -0.0277,-0.4937 0,-0.7202 -0.0277,-0.2933 0.3246,-0.1895 0.36,-0.5999 -0.0354,-0.4651 -0.49,-0.3774 -0.4799,-0.6001 l 0,-1.68 c -0.004,-0.1552 0.4162,-0.1825 0.3601,-0.48 0.0561,-0.4907 -0.4124,-0.3275 -0.3601,-0.7199 10e-4,-0.2522 -0.0213,-0.8323 0,-0.8401 -0.9246,0.008 -6.7344,-0.0454 -6.96,0 -0.0415,0.584 0.0544,0.5472 0.1201,0.8401 -0.0273,0.2458 -0.5671,0.3935 -0.6001,0.8401 0.033,0.2376 0.3567,0.2212 0.3599,0.48 l 0,1.6799 c 0.008,0.2063 -0.4802,0.3159 -0.48,0.5998 0.0371,0.401 0.4712,0.3533 0.48,0.6002 -0.009,0.1118 0.003,0.5168 0,0.6001"
               style="fill:#ffffff;fill-opacity:1;fill-rule:nonzero;stroke:none"
               id="path4892" />
            <path
               inkscape:connector-curvature="0"
               d="m 204.5076,404.2417 0.9602,0 c 0.6218,0.174 0.8662,0.5625 1.5598,0.5998 0.488,-0.0373 0.7209,-0.3657 1.0801,-0.3598 0.3113,-0.006 0.7827,0.3444 1.32,0.3598 0.5081,-0.0154 0.7694,-0.3327 1.0799,-0.48 0.343,-0.132 0.7463,-0.125 1.2,-0.1198 -0.0389,-0.3116 -0.0277,-0.4937 0,-0.7202 -0.0277,-0.2933 0.3246,-0.1895 0.36,-0.5999 -0.0354,-0.4651 -0.49,-0.3774 -0.4799,-0.6001 l 0,-1.68 c -0.004,-0.1552 0.4162,-0.1825 0.3601,-0.48 0.0561,-0.4907 -0.4124,-0.3275 -0.3601,-0.7199 10e-4,-0.2522 -0.0213,-0.8323 0,-0.8401 -0.9246,0.008 -6.7344,-0.0454 -6.96,0 -0.0415,0.584 0.0544,0.5472 0.1201,0.8401 -0.0273,0.2458 -0.5671,0.3935 -0.6001,0.8401 0.033,0.2376 0.3567,0.2212 0.3599,0.48 l 0,1.6799 c 0.008,0.2063 -0.4802,0.3159 -0.48,0.5998 0.0371,0.401 0.4712,0.3533 0.48,0.6002 -0.009,0.1118 0.003,0.5168 0,0.6001 z"
               style="fill:none;stroke:#011F5B;stroke-width:0.1926;stroke-linecap:butt;stroke-linejoin:miter;stroke-miterlimit:3.86369991;stroke-opacity:1;stroke-dasharray:none"
               id="path4894" />
            <path
               inkscape:connector-curvature="0"
               d="m 205.2278,404.2417 c 0.021,-0.007 0.0322,-3.7281 0,-4.5601 0.021,-0.0434 5.4409,-0.0545 5.6399,0 0.0395,0.958 0.0339,4.5808 0,4.5601"
               style="fill:none;stroke:#011F5B;stroke-width:0.1926;stroke-linecap:butt;stroke-linejoin:miter;stroke-miterlimit:3.86369991;stroke-opacity:1;stroke-dasharray:none"
               id="path4896" />
            <path
               inkscape:connector-curvature="0"
               d="m 208.1077,404.4817 0,-4.8001"
               style="fill:none;stroke:#011F5B;stroke-width:0.1926;stroke-linecap:butt;stroke-linejoin:miter;stroke-miterlimit:3.86369991;stroke-opacity:1;stroke-dasharray:none"
               id="path4898" />
            <path
               inkscape:connector-curvature="0"
               d="m 208.2278,400.2817 c 0.1797,-0.0689 0.6179,-0.23 1.0798,-0.3601 0.5145,-0.1658 1.0989,-0.0489 1.5601,-0.1201 0.1079,-0.043 -2.6987,-0.0647 -2.6399,-0.1199 -0.0476,0.5969 -0.0588,0.542 0,0.6001"
               style="fill:#011F5B;fill-opacity:1;fill-rule:nonzero;stroke:none"
               id="path4900" />
            <path
               inkscape:connector-curvature="0"
               d="m 208.2278,400.2817 c 0.1797,-0.0689 0.6179,-0.23 1.0798,-0.3601 0.5145,-0.1658 1.0989,-0.0489 1.5601,-0.1201 0.1079,-0.043 -2.6987,-0.0647 -2.6399,-0.1199 -0.0476,0.5969 -0.0588,0.542 0,0.6001 z"
               style="fill:none;stroke:#011F5B;stroke-width:0.1926;stroke-linecap:butt;stroke-linejoin:miter;stroke-miterlimit:3.86369991;stroke-opacity:1;stroke-dasharray:none"
               id="path4902" />
            <path
               inkscape:connector-curvature="0"
               d="m 207.7478,399.5617 c 0.0178,0.066 0.1589,0.1641 0.3599,0.1199 0.1472,0.0442 0.2885,-0.0539 0.24,-0.1199 0.0485,-0.1757 -0.0928,-0.2739 -0.24,-0.2402 -0.201,-0.0337 -0.3421,0.0645 -0.3599,0.2402"
               style="fill:#011F5B;fill-opacity:1;fill-rule:nonzero;stroke:none"
               id="path4904" />
            <path
               inkscape:connector-curvature="0"
               d="m 207.7478,399.5617 c 0.0178,0.066 0.1589,0.1641 0.3599,0.1199 0.1472,0.0442 0.2885,-0.0539 0.24,-0.1199 0.0485,-0.1757 -0.0928,-0.2739 -0.24,-0.2402 -0.201,-0.0337 -0.3421,0.0645 -0.3599,0.2402 z"
               style="fill:none;stroke:#011F5B;stroke-width:0.1926;stroke-linecap:butt;stroke-linejoin:miter;stroke-miterlimit:3.86369991;stroke-opacity:1;stroke-dasharray:none"
               id="path4906" />
            <path
               inkscape:connector-curvature="0"
               d="m 207.8677,400.2817 c -0.1799,-0.0689 -0.6182,-0.23 -1.0801,-0.3601 -0.5144,-0.1658 -1.0988,-0.0489 -1.5598,-0.1201 -0.1079,-0.043 2.6985,-0.0647 2.6399,-0.1199 0.0473,0.5969 0.0586,0.542 0,0.6001"
               style="fill:#011F5B;fill-opacity:1;fill-rule:nonzero;stroke:none"
               id="path4908" />
            <path
               inkscape:connector-curvature="0"
               d="m 207.8677,400.2817 c -0.1799,-0.0689 -0.6182,-0.23 -1.0801,-0.3601 -0.5144,-0.1658 -1.0988,-0.0489 -1.5598,-0.1201 -0.1079,-0.043 2.6985,-0.0647 2.6399,-0.1199 0.0473,0.5969 0.0586,0.542 0,0.6001 z"
               style="fill:none;stroke:#011F5B;stroke-width:0.1926;stroke-linecap:butt;stroke-linejoin:miter;stroke-miterlimit:3.86369991;stroke-opacity:1;stroke-dasharray:none"
               id="path4910" />
            <path
               inkscape:connector-curvature="0"
               d="m 189.2676,398.1216 c 0.1282,-0.3548 0.3952,-0.5902 0.8401,-0.6001 0.8051,0.01 1.5891,0.612 2.04,0.9601 0.3899,0.2539 0.7705,0.533 0.72,1.0801 l 0,-0.2402 c -0.0176,0.0488 0.6186,0.6836 2.1599,0.2402 0.4622,-0.1999 2.3276,-1.2476 2.76,-1.4401 0.3176,-0.125 1.5325,-0.9964 3.48,-0.72 -0.0488,0.0596 2.8496,0.4584 2.1601,3.4799 -0.4209,2.097 -0.2775,2.2484 -0.1201,2.8802 -0.0493,0.0852 -1.7536,0.4682 -1.6799,-1.9202 -0.7671,-0.0525 -1.7102,-0.6106 -1.0801,-2.04 0.2334,0.3349 0.5689,0.729 1.0801,0.72 0.2385,0.009 0.5437,-0.4075 0.6001,-0.72 0.008,-0.7376 -0.7422,-1.066 -1.6802,-0.96 -0.4658,0.125 -0.9011,0.6482 -1.5598,1.0801 0.1213,0.094 0.2254,0.4775 0.24,0.5999 -0.0146,0.4086 -0.3383,0.5834 -0.6001,0.7201 0.0855,0.1206 0.1763,0.2957 0.1201,0.48 0.0562,0.2481 -0.3699,0.2261 -0.4802,0.3599 0.0137,0.0742 0.0137,0.0195 0,0.1201 0.0137,0.4742 0.0818,0.7148 -0.8399,0.72 0.1094,0.4052 0.0186,0.6843 -0.2399,0.8401 l -0.72,0 c -0.3908,0.1289 0.0173,0.2649 -0.3601,0.5998 -0.3369,0.3538 -0.8914,0.0291 -0.8401,0 -0.0513,0.3301 -0.2586,0.5689 -0.5999,0.5999 -0.2155,-0.031 -0.4541,-0.0474 -0.6001,-0.1199 l -0.24,-0.24 c -0.364,0.0225 -0.4492,0.3289 -0.8398,0.3599 -0.3933,-0.031 -0.5525,-0.3374 -0.7202,-0.4797 -0.2527,0.071 -0.2869,0.2954 -0.5999,0.2399 -0.2551,0.0555 -0.3176,-0.1689 -0.3601,-0.2399 -0.2812,-0.2901 -0.2646,-0.5567 -0.6,-0.72 l -0.1199,0.24 c -0.0477,0.0449 -0.0518,0.06 0,0.1199 -0.5896,-0.3021 -1.7947,-3.0492 -1.8001,-3.6001 0.005,-0.5489 0.472,-0.314 0.48,-0.8399 -0.008,-0.388 -0.508,-0.6343 -0.48,-0.96 -0.028,-0.3308 0.398,-0.5115 0.72,-0.48 l -0.24,-0.12"
               style="fill:#ffffff;fill-opacity:1;fill-rule:evenodd;stroke:none"
               id="path4912" />
            <path
               inkscape:connector-curvature="0"
               d="m 189.2676,398.1216 c 0.1282,-0.3548 0.3952,-0.5902 0.8401,-0.6001 0.8051,0.01 1.5891,0.612 2.04,0.9601 0.3899,0.2539 0.7705,0.533 0.72,1.0801 l 0,-0.2402 c -0.0176,0.0488 0.6186,0.6836 2.1599,0.2402 0.4622,-0.1999 2.3276,-1.2476 2.76,-1.4401 0.3176,-0.125 1.5325,-0.9964 3.48,-0.72 -0.0488,0.0596 2.8496,0.4584 2.1601,3.4799 -0.4209,2.097 -0.2775,2.2484 -0.1201,2.8802 -0.0493,0.0852 -1.7536,0.4682 -1.6799,-1.9202 -0.7671,-0.0525 -1.7102,-0.6106 -1.0801,-2.04 0.2334,0.3349 0.5689,0.729 1.0801,0.72 0.2385,0.009 0.5437,-0.4075 0.6001,-0.72 0.008,-0.7376 -0.7422,-1.066 -1.6802,-0.96 -0.4658,0.125 -0.9011,0.6482 -1.5598,1.0801 0.1213,0.094 0.2254,0.4775 0.24,0.5999 -0.0146,0.4086 -0.3383,0.5834 -0.6001,0.7201 0.0855,0.1206 0.1763,0.2957 0.1201,0.48 0.0562,0.2481 -0.3699,0.2261 -0.4802,0.3599 0.0137,0.0742 0.0137,0.0195 0,0.1201 0.0137,0.4742 0.0818,0.7148 -0.8399,0.72 0.1094,0.4052 0.0186,0.6843 -0.2399,0.8401 l -0.72,0 c -0.3908,0.1289 0.0173,0.2649 -0.3601,0.5998 -0.3369,0.3538 -0.8914,0.0291 -0.8401,0 -0.0513,0.3301 -0.2586,0.5689 -0.5999,0.5999 -0.2155,-0.031 -0.4541,-0.0474 -0.6001,-0.1199 l -0.24,-0.24 c -0.364,0.0225 -0.4492,0.3289 -0.8398,0.3599 -0.3933,-0.031 -0.5525,-0.3374 -0.7202,-0.4797 -0.2527,0.071 -0.2869,0.2954 -0.5999,0.2399 -0.2551,0.0555 -0.3176,-0.1689 -0.3601,-0.2399 -0.2812,-0.2901 -0.2646,-0.5567 -0.6,-0.72 l -0.1199,0.24 c -0.0477,0.0449 -0.0518,0.06 0,0.1199 -0.5896,-0.3021 -1.7947,-3.0492 -1.8001,-3.6001 0.005,-0.5489 0.472,-0.314 0.48,-0.8399 -0.008,-0.388 -0.508,-0.6343 -0.48,-0.96 -0.028,-0.3308 0.398,-0.5115 0.72,-0.48 l -0.24,-0.12 z"
               style="fill:none;stroke:#011F5B;stroke-width:0.1925;stroke-linecap:butt;stroke-linejoin:miter;stroke-miterlimit:3.86369991;stroke-opacity:1;stroke-dasharray:none"
               id="path4914" />
            <path
               inkscape:connector-curvature="0"
               d="m 190.5877,400.4016 c -0.0274,0.029 0.5637,-0.1985 0.6001,-0.3602 -0.0364,-0.1274 -0.4183,-0.3112 -0.72,-0.4797 l -0.24,0 c 0.0828,0.3218 -0.031,0.186 0,0.4797 -0.031,0.2886 0.2327,0.3892 0.3599,0.3602"
               style="fill:#011F5B;fill-opacity:1;fill-rule:nonzero;stroke:none"
               id="path4916" />
            <path
               inkscape:connector-curvature="0"
               d="m 190.5877,400.4016 c -0.0274,0.029 0.5637,-0.1985 0.6001,-0.3602 -0.0364,-0.1274 -0.4183,-0.3112 -0.72,-0.4797 l -0.24,0 c 0.0828,0.3218 -0.031,0.186 0,0.4797 -0.031,0.2886 0.2327,0.3892 0.3599,0.3602 z"
               style="fill:none;stroke:#011F5B;stroke-width:0.1926;stroke-linecap:butt;stroke-linejoin:miter;stroke-miterlimit:3.86369991;stroke-opacity:1;stroke-dasharray:none"
               id="path4918" />
            <path
               inkscape:connector-curvature="0"
               d="m 192.7478,401.4817 c 0.2783,0.1039 0.1362,0.4816 0.5999,0.4797 0.468,0.002 0.6328,-0.3044 1.08,-0.3599 0.2176,0.0555 0.4051,0.3179 0.72,0.3599 0.3724,-0.042 0.7986,-0.4795 0.72,-0.9598 0.0105,-0.0451 1.1468,0.327 1.0801,-0.8401 0.9301,0.2476 0.8391,-0.5022 0.9599,-0.84 0.0611,-0.3789 0.6519,-0.0945 0.5999,-0.8399"
               style="fill:none;stroke:#011F5B;stroke-width:0.1926;stroke-linecap:butt;stroke-linejoin:miter;stroke-miterlimit:3.86369991;stroke-opacity:1;stroke-dasharray:none"
               id="path4920" />
            <path
               inkscape:connector-curvature="0"
               d="m 180.6277,404.2417 0.8401,0 c 0.708,0.1445 0.9524,0.5332 1.68,0.4799 0.454,0.0533 0.6869,-0.2751 1.08,-0.2399 0.2773,-0.0352 0.749,0.3151 1.3198,0.3598 0.4744,-0.0447 0.7359,-0.3623 1.0801,-0.48 0.3091,-0.1613 0.7124,-0.1545 1.0799,-0.1198 0.0473,-0.3411 0.0588,-0.5232 0,-0.8401 0.0588,-0.2029 0.4108,-0.0989 0.36,-0.48 0.0508,-0.4944 -0.4038,-0.407 -0.36,-0.6001 l -0.1199,-1.68 c 0.082,-0.1845 0.5024,-0.2118 0.4799,-0.48 0.0225,-0.52 -0.4458,-0.3568 -0.36,-0.7199 -0.0323,-0.2817 -0.055,-0.8616 0,-0.8401 -0.9583,-0.0215 -6.6453,-0.0271 -6.9598,0 0.0474,0.6023 0.0208,0.5176 0,0.8401 0.0588,0.2163 -0.4809,0.364 -0.4802,0.7199 -7e-4,0.3282 0.3233,0.3119 0.3601,0.6002 l 0,1.6799 c -0.0256,0.177 -0.5142,0.2864 -0.4799,0.5998 0.003,0.3717 0.4375,0.324 0.4799,0.6002 -0.0424,0.0825 -0.0312,0.4875 0,0.6001"
               style="fill:#ffffff;fill-opacity:1;fill-rule:nonzero;stroke:none"
               id="path4922" />
            <path
               inkscape:connector-curvature="0"
               d="m 180.6277,404.2417 0.8401,0 c 0.708,0.1445 0.9524,0.5332 1.68,0.4799 0.454,0.0533 0.6869,-0.2751 1.08,-0.2399 0.2773,-0.0352 0.749,0.3151 1.3198,0.3598 0.4744,-0.0447 0.7359,-0.3623 1.0801,-0.48 0.3091,-0.1613 0.7124,-0.1545 1.0799,-0.1198 0.0473,-0.3411 0.0588,-0.5232 0,-0.8401 0.0588,-0.2029 0.4108,-0.0989 0.36,-0.48 0.0508,-0.4944 -0.4038,-0.407 -0.36,-0.6001 l -0.1199,-1.68 c 0.082,-0.1845 0.5024,-0.2118 0.4799,-0.48 0.0225,-0.52 -0.4458,-0.3568 -0.36,-0.7199 -0.0323,-0.2817 -0.055,-0.8616 0,-0.8401 -0.9583,-0.0215 -6.6453,-0.0271 -6.9598,0 0.0474,0.6023 0.0208,0.5176 0,0.8401 0.0588,0.2163 -0.4809,0.364 -0.4802,0.7199 -7e-4,0.3282 0.3233,0.3119 0.3601,0.6002 l 0,1.6799 c -0.0256,0.177 -0.5142,0.2864 -0.4799,0.5998 0.003,0.3717 0.4375,0.324 0.4799,0.6002 -0.0424,0.0825 -0.0312,0.4875 0,0.6001 z"
               style="fill:none;stroke:#011F5B;stroke-width:0.1926;stroke-linecap:butt;stroke-linejoin:miter;stroke-miterlimit:3.86369991;stroke-opacity:1;stroke-dasharray:none"
               id="path4924" />
            <path
               inkscape:connector-curvature="0"
               d="m 181.3477,404.2417 c -0.0127,-0.0359 -0.001,-3.7574 0,-4.68 -0.0127,0.0472 5.4072,0.0361 5.6401,0 0.006,1.0486 0,4.6714 0,4.68"
               style="fill:none;stroke:#011F5B;stroke-width:0.1926;stroke-linecap:butt;stroke-linejoin:miter;stroke-miterlimit:3.86369991;stroke-opacity:1;stroke-dasharray:none"
               id="path4926" />
            <path
               inkscape:connector-curvature="0"
               d="m 184.2278,404.4817 0,-4.92"
               style="fill:none;stroke:#011F5B;stroke-width:0.1926;stroke-linecap:butt;stroke-linejoin:miter;stroke-miterlimit:3.86369991;stroke-opacity:1;stroke-dasharray:none"
               id="path4928" />
            <path
               inkscape:connector-curvature="0"
               d="m 184.2278,400.1615 c 0.2661,0.0218 0.7041,-0.1393 1.0798,-0.2399 0.6009,-0.1953 1.1851,-0.0784 1.5601,-0.1201 0.1941,-0.0723 -2.6126,-0.0943 -2.6399,-0.1199 0.0388,0.5673 0.0273,0.5127 0,0.4799"
               style="fill:#011F5B;fill-opacity:1;fill-rule:nonzero;stroke:none"
               id="path4930" />
            <path
               inkscape:connector-curvature="0"
               d="m 184.2278,400.1615 c 0.2661,0.0218 0.7041,-0.1393 1.0798,-0.2399 0.6009,-0.1953 1.1851,-0.0784 1.5601,-0.1201 0.1941,-0.0723 -2.6126,-0.0943 -2.6399,-0.1199 0.0388,0.5673 0.0273,0.5127 0,0.4799 z"
               style="fill:none;stroke:#011F5B;stroke-width:0.1926;stroke-linecap:butt;stroke-linejoin:miter;stroke-miterlimit:3.86369991;stroke-opacity:1;stroke-dasharray:none"
               id="path4932" />
            <path
               inkscape:connector-curvature="0"
               d="m 183.8677,399.4416 c -0.0159,0.1568 0.1253,0.2547 0.24,0.24 0.2336,0.0147 0.3748,-0.0832 0.3601,-0.24 0.0147,-0.0852 -0.1265,-0.1831 -0.3601,-0.24 -0.1147,0.0569 -0.2559,0.1548 -0.24,0.24"
               style="fill:#011F5B;fill-opacity:1;fill-rule:nonzero;stroke:none"
               id="path4934" />
            <path
               inkscape:connector-curvature="0"
               d="m 183.8677,399.4416 c -0.0159,0.1568 0.1253,0.2547 0.24,0.24 0.2336,0.0147 0.3748,-0.0832 0.3601,-0.24 0.0147,-0.0852 -0.1265,-0.1831 -0.3601,-0.24 -0.1147,0.0569 -0.2559,0.1548 -0.24,0.24 z"
               style="fill:none;stroke:#011F5B;stroke-width:0.1926;stroke-linecap:butt;stroke-linejoin:miter;stroke-miterlimit:3.86369991;stroke-opacity:1;stroke-dasharray:none"
               id="path4936" />
            <path
               inkscape:connector-curvature="0"
               d="m 183.9878,400.1615 c -0.2139,0.0218 -0.6519,-0.1393 -1.0801,-0.2399 -0.5483,-0.1953 -1.1325,-0.0784 -1.56,-0.1201 -0.1416,-0.0723 2.6648,-0.0943 2.6401,-0.1199 0.0135,0.5673 0.0247,0.5127 0,0.4799"
               style="fill:#011F5B;fill-opacity:1;fill-rule:nonzero;stroke:none"
               id="path4938" />
            <path
               inkscape:connector-curvature="0"
               d="m 183.9878,400.1615 c -0.2139,0.0218 -0.6519,-0.1393 -1.0801,-0.2399 -0.5483,-0.1953 -1.1325,-0.0784 -1.56,-0.1201 -0.1416,-0.0723 2.6648,-0.0943 2.6401,-0.1199 0.0135,0.5673 0.0247,0.5127 0,0.4799 z"
               style="fill:none;stroke:#011F5B;stroke-width:0.1926;stroke-linecap:butt;stroke-linejoin:miter;stroke-miterlimit:3.86369991;stroke-opacity:1;stroke-dasharray:none"
               id="path4940" />
            <path
               inkscape:connector-curvature="0"
               d="m 185.0676,382.7617 c 0.0289,1.5535 1.3423,2.8188 3,2.7598 1.5831,0.059 2.8965,-1.2063 2.8802,-2.7598 0.0163,-1.5684 -1.2971,-2.8338 -2.8802,-2.8802 -1.6577,0.0464 -2.9711,1.3118 -3,2.8802"
               style="fill:#ffffff;fill-opacity:1;fill-rule:nonzero;stroke:none"
               id="path4942" />
            <path
               inkscape:connector-curvature="0"
               d="m 185.0676,382.7617 c 0.0289,1.5535 1.3423,2.8188 3,2.7598 1.5831,0.059 2.8965,-1.2063 2.8802,-2.7598 0.0163,-1.5684 -1.2971,-2.8338 -2.8802,-2.8802 -1.6577,0.0464 -2.9711,1.3118 -3,2.8802 z"
               style="fill:none;stroke:#011F5B;stroke-width:0.1926;stroke-linecap:butt;stroke-linejoin:miter;stroke-miterlimit:3.86369991;stroke-opacity:1;stroke-dasharray:none"
               id="path4944" />
            <path
               inkscape:connector-curvature="0"
               d="m 193.1077,389.6015 c 0.0547,1.5017 1.3681,2.7671 3,2.76 1.6089,0.007 2.9223,-1.2583 2.8801,-2.76 0.0422,-1.6201 -1.2712,-2.8855 -2.8801,-2.8799 -1.6319,-0.006 -2.9453,1.2598 -3,2.8799"
               style="fill:#ffffff;fill-opacity:1;fill-rule:nonzero;stroke:none"
               id="path4946" />
            <path
               inkscape:connector-curvature="0"
               d="m 193.1077,389.6015 c 0.0547,1.5017 1.3681,2.7671 3,2.76 1.6089,0.007 2.9223,-1.2583 2.8801,-2.76 0.0422,-1.6201 -1.2712,-2.8855 -2.8801,-2.8799 -1.6319,-0.006 -2.9453,1.2598 -3,2.8799 z"
               style="fill:none;stroke:#011F5B;stroke-width:0.1925;stroke-linecap:butt;stroke-linejoin:miter;stroke-miterlimit:3.86369991;stroke-opacity:1;stroke-dasharray:none"
               id="path4948" />
            <path
               inkscape:connector-curvature="0"
               d="m 200.7876,382.7617 c -0.0146,1.5535 1.2988,2.8188 2.8801,2.7598 1.6592,0.059 2.9729,-1.2063 3,-2.7598 -0.0271,-1.5684 -1.3408,-2.8338 -3,-2.8802 -1.5813,0.0464 -2.8947,1.3118 -2.8801,2.8802"
               style="fill:#ffffff;fill-opacity:1;fill-rule:nonzero;stroke:none"
               id="path4950" />
            <path
               inkscape:connector-curvature="0"
               d="m 200.7876,382.7617 c -0.0146,1.5535 1.2988,2.8188 2.8801,2.7598 1.6592,0.059 2.9729,-1.2063 3,-2.7598 -0.0271,-1.5684 -1.3408,-2.8338 -3,-2.8802 -1.5813,0.0464 -2.8947,1.3118 -2.8801,2.8802 z"
               style="fill:none;stroke:#011F5B;stroke-width:0.1926;stroke-linecap:butt;stroke-linejoin:miter;stroke-miterlimit:3.86369991;stroke-opacity:1;stroke-dasharray:none"
               id="path4952" />
            <path
               inkscape:connector-curvature="0"
               d="m 198.9878,400.0414 c -0.6985,0.8609 -1.3596,1.8299 -1.4402,1.92 -0.4025,0.1113 -1.2831,1.8625 -3.5998,2.0403 -0.647,-0.013 -2.9073,-0.2324 -3,-0.8402"
               style="fill:none;stroke:#011F5B;stroke-width:0.1926;stroke-linecap:butt;stroke-linejoin:miter;stroke-miterlimit:3.86369991;stroke-opacity:1;stroke-dasharray:none"
               id="path4954" />
            <path
               inkscape:connector-curvature="0"
               d="m 192.9878,399.4416 c -0.0459,0.0557 -0.0413,0.116 0,0.1201 -0.0413,0.1534 -0.5952,0.1001 -0.7202,0.1199 -0.0976,0.0464 0.237,0.1804 0.1201,0.24 0.3997,0.0715 1.2732,0.4561 0.96,0.7199 -0.2876,0.315 -0.4637,0.616 -0.5999,0.8402 -0.25,0.1969 -0.5115,0.3283 -0.9602,0.3598 -0.3013,-0.0315 -0.863,-0.6325 -1.08,-0.8399 0.1545,0.2074 0.6481,0.6333 0.6,0.9598 0.0481,0.812 -0.5825,1.4958 -0.7199,2.1602"
               style="fill:none;stroke:#011F5B;stroke-width:0.1926;stroke-linecap:butt;stroke-linejoin:miter;stroke-miterlimit:3.86369991;stroke-opacity:1;stroke-dasharray:none"
               id="path4956" />
            <path
               inkscape:connector-curvature="0"
               d="m 189.5076,398.2416 c 0.6528,6e-4 1.0051,0.0443 1.32,0.24 0.3042,0.127 0.8894,0.4937 1.0801,0.8399"
               style="fill:none;stroke:#011F5B;stroke-width:0.1926;stroke-linecap:butt;stroke-linejoin:miter;stroke-miterlimit:3.86369991;stroke-opacity:1;stroke-dasharray:none"
               id="path4958" />
          </g>
        </g>
      </g>
    </g>
  </g>
</svg>